<?xml version="1.0" standalone="no"?>
<!DOCTYPE svg PUBLIC "-//W3C//DTD SVG 20010904//EN"
 "http://www.w3.org/TR/2001/REC-SVG-20010904/DTD/svg10.dtd">
<svg version="1.0" xmlns="http://www.w3.org/2000/svg"
 width="512.000000pt" height="512.000000pt" viewBox="0 0 512.000000 512.000000"
 preserveAspectRatio="xMidYMid meet">
<metadata>
Created by potrace 1.14, written by Peter Selinger 2001-2017
</metadata>
<g transform="translate(0.000000,512.000000) scale(0.100000,-0.100000)"
fill="#000000" stroke="none">
<path d="M2367 4914 c-3 -3 -29 -7 -58 -10 -79 -7 -160 -18 -209 -29 -14 -3
-36 -8 -50 -10 -36 -7 -65 -13 -65 -15 0 -1 -9 -3 -20 -5 -50 -8 -250 -62
-295 -79 -100 -39 -225 -95 -304 -138 -94 -50 -195 -122 -197 -138 -1 -6 -2
-16 -3 -22 -1 -7 14 -24 34 -37 19 -13 40 -29 45 -35 6 -7 62 -53 125 -103 63
-50 137 -115 163 -144 70 -77 132 -221 151 -351 7 -46 8 -209 2 -268 -8 -81
-52 -325 -60 -339 -2 -3 -7 -22 -10 -41 -21 -133 -117 -511 -179 -713 -9 -26
-15 -49 -15 -50 0 -1 -10 -36 -23 -77 -12 -41 -23 -79 -25 -85 -1 -5 -7 -30
-15 -55 -7 -25 -14 -49 -15 -55 -2 -5 -12 -40 -23 -77 -11 -38 -17 -68 -15
-68 3 0 0 -9 -5 -19 -6 -10 -13 -34 -15 -52 -3 -19 -12 -59 -20 -89 -13 -50
-23 -98 -31 -157 -2 -11 -6 -30 -10 -42 -6 -19 -8 -18 -38 17 -18 20 -36 42
-42 48 -5 6 -26 30 -45 54 -19 24 -44 53 -55 64 -11 12 -42 49 -70 83 -27 35
-54 63 -59 63 -4 0 -5 12 -1 27 22 88 11 134 -45 190 -32 32 -72 45 -120 39
-14 -2 -30 -4 -35 -5 -16 -2 -82 -64 -94 -88 -18 -35 -13 -102 10 -143 30 -53
71 -74 147 -75 l64 -1 145 -150 c80 -82 163 -168 186 -191 l41 -42 3 -98 c3
-102 8 -166 18 -220 3 -18 6 -35 6 -38 0 -2 9 -34 19 -70 10 -36 19 -68 19
-70 1 -3 1 -6 2 -7 0 -2 2 -10 4 -19 1 -9 17 -63 35 -120 17 -57 36 -120 42
-139 15 -50 25 -59 61 -55 18 2 61 7 97 10 36 3 83 8 105 10 22 2 65 7 95 10
67 6 144 15 185 22 17 2 37 5 45 5 14 0 48 4 195 24 28 3 53 8 56 10 26 15
111 -117 125 -196 6 -34 6 -100 1 -130 -13 -70 -90 -234 -163 -347 l-52 -81
248 -1 248 -2 -10 40 c-20 81 -109 150 -198 154 -54 2 -62 10 -45 46 50 101
56 268 15 376 -24 63 -53 112 -78 132 -12 10 -11 13 9 17 28 7 372 76 409 82
14 3 43 10 65 16 22 6 45 11 50 12 22 5 193 58 228 71 20 8 37 13 37 10 0 -2
15 2 33 10 38 16 25 23 167 -103 41 -37 95 -85 119 -107 25 -22 55 -48 66 -58
11 -11 42 -38 69 -60 47 -41 65 -57 159 -144 l45 -42 34 37 c18 21 52 60 74
88 23 27 76 89 117 139 l76 90 -25 13 c-99 52 -245 -12 -304 -133 -30 -62 -21
-66 -215 88 -5 4 -72 55 -148 113 -76 59 -137 107 -135 109 8 8 138 53 138 48
0 -3 6 -1 13 4 6 6 30 16 52 23 22 7 54 18 70 25 17 7 116 43 220 80 105 38
201 73 215 78 14 6 27 11 30 12 33 8 86 30 91 37 4 6 -11 94 -33 196 -21 103
-40 196 -42 207 -2 11 -9 40 -16 65 -7 25 -14 54 -16 65 -1 11 -4 28 -6 37 -2
11 60 82 166 192 l168 176 44 -4 c75 -8 147 26 168 79 34 84 22 139 -40 194
-68 60 -150 56 -213 -11 -17 -18 -35 -48 -40 -66 -9 -31 -9 -43 4 -103 4 -17
-1 -33 -15 -50 -12 -13 -29 -33 -38 -44 -22 -26 -124 -146 -137 -161 -5 -7
-28 -33 -49 -58 l-40 -46 -13 37 c-7 21 -15 49 -18 63 -8 43 -64 225 -86 282
-27 69 -83 181 -103 204 -8 11 -28 36 -45 57 -16 21 -65 77 -110 125 -44 48
-117 132 -162 187 -100 123 -158 192 -184 221 -64 71 -80 90 -77 97 1 4 -2 7
-7 7 -4 0 -37 35 -72 78 -35 42 -73 87 -84 99 -11 12 -25 28 -30 35 -117 146
-168 212 -196 253 -19 28 -36 52 -39 55 -21 21 -86 160 -105 222 -26 90 -21
295 11 438 18 79 14 66 54 175 12 33 33 89 46 124 15 42 20 68 14 76 -27 32
-187 93 -265 101 -27 3 -55 7 -62 9 -6 2 -13 1 -16 -1z m131 -77 c36 -9 41
-14 36 -32 -6 -20 -6 -20 9 0 9 11 19 17 23 13 4 -4 1 -16 -7 -25 -12 -16 -12
-17 2 -6 9 7 20 9 24 5 5 -4 5 -2 1 5 -5 9 2 9 26 -1 35 -15 49 -36 24 -36 -8
0 -18 -4 -21 -10 -3 -6 1 -7 9 -4 20 8 20 5 -4 -50 -10 -25 -17 -46 -13 -46 3
0 0 -7 -7 -15 -14 -17 -96 -56 -122 -58 -10 -1 -18 -5 -18 -10 0 -5 -9 -7 -20
-4 -14 4 -20 0 -20 -11 0 -13 -2 -14 -9 -4 -6 10 -10 10 -21 -3 -7 -9 -19 -14
-26 -11 -7 3 -15 -2 -18 -10 -4 -12 -10 -12 -26 -4 -16 9 -18 8 -14 -5 4 -9 3
-15 -2 -14 -12 3 -67 -12 -79 -22 -6 -4 -22 -10 -37 -13 -14 -2 -36 -9 -47
-16 -12 -6 -26 -8 -31 -5 -6 3 -10 2 -10 -3 0 -5 -6 -9 -12 -10 -7 -1 -24 -3
-38 -4 -16 -2 -24 2 -22 10 1 8 -2 11 -9 6 -8 -5 -10 -2 -7 7 4 10 -1 15 -12
15 -11 0 -16 -5 -12 -15 3 -9 1 -12 -5 -8 -7 4 -10 0 -8 -10 4 -27 -5 -35 -23
-21 -9 7 -13 8 -9 2 4 -8 -3 -10 -23 -8 -17 2 -30 -1 -30 -6 0 -6 -9 -6 -23
-1 -14 6 -30 6 -38 0 -10 -6 -6 -9 15 -9 25 0 27 -2 15 -17 -11 -15 -11 -16 1
-5 17 15 50 16 50 1 0 -5 -4 -8 -8 -5 -5 3 -9 -2 -9 -11 0 -13 3 -13 16 3 21
26 32 29 42 12 7 -11 9 -10 9 1 0 11 5 9 22 -5 17 -14 19 -15 10 -2 -12 14
-11 17 5 16 10 -1 31 2 46 6 20 5 27 3 22 -5 -4 -6 5 -3 21 7 17 12 25 14 20
5 -6 -9 -1 -8 16 3 29 19 38 13 32 -22 -3 -19 -2 -23 5 -13 5 8 8 23 6 34 -3
13 0 17 10 13 8 -3 15 -1 15 4 0 17 18 11 23 -7 4 -14 5 -14 6 3 1 15 7 21 24
20 12 -1 28 5 36 12 11 11 17 10 35 -5 14 -13 17 -13 8 -2 -17 22 -2 32 19 13
14 -12 21 -13 36 -4 16 10 16 10 -4 5 -12 -3 -24 -1 -28 4 -3 6 7 13 22 17 15
4 33 11 39 15 6 5 20 10 31 12 12 2 28 9 37 16 9 7 27 11 41 9 13 -3 23 -2 21
1 -2 3 2 12 10 18 8 8 15 9 19 3 3 -6 1 -10 -4 -10 -6 0 -10 -3 -10 -7 1 -5 0
-10 -1 -13 -3 -7 -9 -39 -16 -82 -3 -21 -11 -38 -18 -38 -6 0 -4 -5 4 -11 12
-9 11 -10 -5 -6 -15 3 -21 -1 -21 -14 0 -13 4 -15 12 -8 8 6 14 7 18 0 6 -9
-31 -27 -46 -23 -5 1 -8 -3 -8 -9 0 -6 -7 -9 -15 -5 -8 3 -15 1 -15 -5 0 -6
-4 -8 -9 -5 -5 4 -11 2 -13 -4 -1 -5 -12 -11 -23 -13 -11 -1 -24 -5 -30 -8
-15 -9 -69 -21 -75 -17 -3 2 -4 8 -2 13 1 6 -6 1 -15 -10 -18 -20 -55 -20
-130 -2 -13 3 -26 0 -29 -6 -4 -7 -4 -9 1 -5 9 9 65 -19 83 -41 8 -9 11 -10 7
-4 -6 12 30 10 73 -3 6 -2 12 2 12 8 0 6 10 3 22 -8 12 -10 18 -13 14 -6 -7
12 0 15 37 15 9 0 17 4 17 9 0 6 9 8 20 5 11 -3 20 -1 20 5 0 5 5 6 10 3 6 -4
8 -10 6 -14 -3 -4 1 -8 9 -8 11 0 12 4 4 14 -11 13 -1 21 33 27 7 1 19 6 27
10 9 6 12 5 7 -2 -4 -6 -7 -32 -8 -56 0 -31 -4 -44 -12 -39 -6 3 -5 0 2 -8 6
-7 12 -22 12 -32 0 -16 -2 -17 -15 -7 -13 11 -14 10 -9 -4 3 -9 11 -16 16 -16
6 0 4 -8 -3 -17 -8 -9 -9 -14 -3 -10 8 4 13 -5 16 -27 2 -19 1 -33 -3 -30 -4
2 -15 -3 -23 -12 -12 -12 -16 -12 -17 -2 0 10 -2 10 -6 1 -5 -13 -79 -38 -100
-34 -7 1 -13 -3 -13 -9 0 -6 -4 -9 -9 -5 -5 3 -12 1 -16 -5 -3 -5 -11 -10 -16
-10 -6 0 -7 5 -3 11 5 8 2 9 -12 1 -15 -8 -24 -7 -39 6 -19 16 -19 16 -6 0 16
-21 16 -21 -26 -9 -20 6 -35 6 -38 0 -4 -5 1 -9 10 -9 10 0 15 -6 12 -13 -3
-8 1 -14 9 -14 7 0 10 5 7 11 -4 6 4 2 17 -9 13 -11 20 -14 16 -8 -5 9 -2 11
8 7 9 -3 13 -11 9 -18 -4 -7 -1 -7 7 1 11 10 17 10 29 0 12 -9 13 -9 8 0 -6 9
2 13 25 13 61 2 88 5 88 11 0 3 6 6 13 6 6 0 28 8 48 16 35 16 36 15 49 -8 13
-25 7 -60 -9 -50 -5 3 -12 2 -15 -3 -2 -4 6 -8 19 -8 13 0 21 5 19 11 -3 5 1
1 10 -9 8 -10 13 -23 10 -27 -3 -5 0 -9 5 -9 6 0 11 -6 11 -14 0 -8 6 -21 13
-28 21 -23 20 -41 -3 -35 -13 3 -18 1 -13 -6 4 -6 -2 -8 -15 -5 -13 4 -20 1
-19 -5 1 -6 -2 -12 -8 -12 -5 -1 -19 -5 -30 -9 -11 -4 -32 -12 -46 -17 -37
-14 -139 -19 -139 -7 0 6 -7 8 -15 4 -8 -3 -15 0 -16 7 0 9 -2 9 -6 -1 -2 -6
-8 -10 -13 -7 -10 6 -7 -21 4 -32 4 -4 6 -3 4 2 -2 6 2 11 7 12 6 0 9 -3 8 -8
-2 -5 0 -8 5 -8 25 4 42 -2 36 -13 -6 -10 -5 -10 8 -1 8 7 18 10 21 7 7 -8
105 -8 127 -1 45 15 51 16 46 9 -3 -5 1 -9 8 -9 8 0 12 5 10 11 -3 7 8 13 23
14 15 1 30 6 33 12 7 11 50 9 50 -2 0 -4 -1 -9 -2 -10 -1 -2 10 -15 25 -31 16
-15 25 -32 22 -37 -3 -6 1 -10 10 -10 12 0 15 -5 11 -17 -4 -10 -4 -14 0 -10
8 8 54 -39 54 -55 0 -5 -7 -7 -16 -4 -10 4 -13 2 -8 -6 5 -7 -1 -9 -19 -4 -14
3 -29 2 -32 -4 -4 -6 1 -7 12 -3 13 4 15 3 8 -5 -6 -6 -19 -13 -30 -15 -11 -1
-25 -6 -32 -10 -7 -4 -13 0 -16 10 -3 13 -5 11 -6 -6 -1 -19 -5 -23 -26 -19
-15 3 -22 1 -18 -5 4 -6 -2 -8 -15 -5 -12 4 -22 3 -22 -2 0 -11 -40 -20 -41
-9 -5 35 -3 55 6 62 6 5 4 7 -5 4 -9 -2 -15 -15 -14 -34 0 -28 -2 -31 -25 -27
-41 7 -53 13 -46 23 3 5 2 12 -3 15 -4 2 -8 -4 -9 -14 -1 -10 6 -21 15 -25 15
-6 15 -8 -2 -21 -11 -8 -15 -14 -10 -14 6 0 15 5 21 11 7 7 15 5 27 -6 11 -11
16 -12 16 -4 0 7 7 5 16 -7 8 -10 12 -12 8 -4 -7 13 -6 13 11 0 11 -9 16 -10
11 -2 -8 13 19 12 43 -2 11 -7 11 -10 0 -17 -10 -6 -7 -8 8 -6 21 1 21 2 6 19
-18 20 -4 25 16 6 11 -10 13 -10 7 0 -7 12 -3 13 52 15 9 1 16 -5 14 -12 -1
-7 2 -10 9 -5 9 5 10 2 6 -9 -4 -11 -2 -14 9 -10 13 5 13 8 -1 23 -21 23 -19
33 5 27 11 -3 18 -1 15 4 -7 11 40 23 60 15 8 -3 14 0 12 7 -5 25 39 18 59
-10 12 -15 21 -30 21 -33 0 -3 23 -29 52 -57 29 -29 50 -53 46 -53 -5 0 4 -11
20 -26 15 -14 25 -28 22 -31 -4 -3 -13 2 -22 11 -9 9 -19 16 -23 16 -3 0 -1
-5 6 -12 17 -17 15 -33 -3 -18 -13 11 -14 10 -9 -4 4 -9 3 -16 -2 -15 -5 1
-22 -4 -39 -11 -16 -7 -39 -15 -49 -17 -11 -2 -26 -9 -35 -16 -12 -9 -13 -9
-7 1 4 6 2 12 -3 12 -6 0 -11 -5 -11 -11 0 -7 -13 -10 -34 -7 -19 2 -32 0 -30
-4 6 -9 -8 -10 -30 -2 -9 3 -13 10 -10 15 10 16 -8 9 -23 -8 -8 -10 -12 -13
-9 -8 2 6 -5 12 -16 12 -20 2 -20 2 -2 -11 39 -27 96 -38 167 -33 78 5 99 8
107 19 3 4 17 9 30 11 46 9 54 12 68 25 16 14 36 6 26 -10 -4 -6 -2 -8 3 -5
13 8 36 -17 25 -28 -4 -5 -2 -5 4 -2 6 3 20 -7 32 -22 l21 -29 -34 2 c-19 1
-35 -1 -35 -4 0 -3 -19 -7 -42 -8 -24 -1 -63 -4 -87 -8 -26 -4 -41 -2 -38 3 4
5 0 10 -7 10 -8 0 -12 -6 -9 -12 2 -8 -5 -12 -19 -11 -13 1 -35 -1 -50 -5 -19
-5 -28 -4 -28 4 0 9 -2 9 -8 1 -4 -6 -29 -15 -57 -19 -27 -5 -56 -9 -63 -11
-6 -1 -9 3 -6 9 5 8 2 7 -7 0 -7 -7 -26 -13 -41 -13 -15 0 -28 -5 -28 -12 0
-6 -7 -3 -16 8 -8 10 -12 13 -8 5 5 -11 2 -13 -14 -9 -12 4 -20 2 -16 -3 3 -5
-3 -9 -13 -10 -20 -1 -29 -2 -103 -18 -40 -9 -56 -8 -67 1 -11 9 -13 8 -11 -3
2 -8 -4 -13 -14 -13 -10 1 -18 -1 -18 -5 0 -6 -34 -11 -92 -14 -14 -1 -24 -6
-21 -11 3 -5 -6 -7 -21 -4 -14 3 -29 1 -32 -4 -3 -4 -9 -6 -14 -3 -5 3 -12 1
-15 -5 -5 -8 -12 -7 -23 2 -13 11 -14 11 -7 -1 6 -11 3 -13 -13 -9 -12 4 -22
2 -22 -4 0 -6 -9 -8 -20 -5 -11 3 -22 1 -25 -3 -3 -5 -13 -7 -23 -5 -9 1 -23
-2 -30 -8 -7 -5 -15 -7 -19 -4 -3 4 -11 3 -17 -2 -16 -12 -88 -22 -81 -10 4 5
1 9 -4 9 -6 0 -11 -7 -11 -16 0 -14 -2 -15 -17 -3 -14 12 -16 12 -8 0 6 -11 4
-13 -8 -8 -10 3 -17 2 -17 -3 0 -6 -5 -10 -11 -10 -5 0 -7 5 -4 10 3 6 2 10
-3 10 -6 0 -13 -8 -16 -17 -5 -12 -9 -14 -18 -5 -7 7 -17 12 -23 12 -5 0 -4
-4 4 -9 10 -6 5 -11 -20 -16 -22 -5 -34 -4 -37 4 -2 6 -8 11 -13 11 -4 0 -6
-7 -3 -15 4 -9 0 -15 -8 -15 -20 0 -29 11 -20 24 7 12 9 18 11 42 1 9 6 12 14
8 7 -5 7 -1 -2 10 -13 15 -13 19 -1 26 8 5 18 6 24 3 5 -3 6 -1 2 6 -4 6 -12
8 -18 5 -7 -4 -7 0 0 12 5 11 7 25 4 33 -2 8 0 11 5 8 5 -3 8 6 5 24 -2 16 0
29 6 29 5 0 9 10 8 22 0 13 4 23 11 23 6 0 15 4 20 8 4 5 1 7 -7 5 -10 -2 -15
5 -14 22 2 39 3 42 13 35 5 -3 13 -1 16 5 4 6 3 9 -2 8 -4 -2 -8 2 -8 7 0 6 8
9 18 9 10 -1 15 1 12 4 -2 3 1 12 7 21 9 11 6 10 -9 -2 -14 -12 -23 -15 -28
-8 -3 6 0 11 7 12 9 0 10 2 1 5 -7 3 -9 12 -6 20 4 12 8 12 22 2 14 -11 14
-10 -1 7 -11 13 -14 25 -9 34 5 8 8 24 6 37 -1 13 2 24 6 24 5 0 8 6 6 13 -1
6 6 11 15 9 24 -4 31 14 10 29 -15 13 -16 12 -4 -3 12 -15 11 -17 -7 -15 -16
1 -19 6 -15 27 10 43 13 50 25 50 8 0 9 -4 0 -13 -8 -10 -7 -14 2 -14 20 0 17
29 -4 34 -11 3 -15 11 -12 24 3 10 10 16 15 13 6 -4 5 4 -2 16 -11 21 -10 22
6 16 15 -6 17 -5 7 5 -7 7 -13 32 -13 56 0 28 4 43 13 43 9 0 9 2 -1 9 -8 5
-13 24 -12 47 1 22 1 41 0 44 0 3 -3 21 -5 40 -2 19 -5 44 -8 55 -2 11 -8 38
-12 60 -5 22 -9 42 -10 45 -7 22 -27 68 -36 84 -7 13 -7 16 0 11 6 -3 11 -2
11 3 0 6 -7 12 -15 16 -8 3 -15 12 -15 21 0 8 -5 15 -12 15 -6 0 -9 3 -5 6 3
4 1 12 -6 20 -7 7 -21 25 -32 40 -27 36 -61 70 -124 124 -83 70 -82 70 -72 89
7 13 5 17 -9 17 -13 0 -16 -4 -10 -12 6 -6 7 -14 4 -17 -9 -8 -33 16 -26 27 3
5 1 6 -4 3 -6 -3 -16 -1 -24 4 -13 8 -13 10 0 20 12 8 11 9 -6 5 -24 -7 -64
26 -64 52 0 13 -2 14 -9 3 -5 -8 -11 -9 -15 -3 -3 5 4 18 16 28 12 11 18 14
15 8 -4 -7 1 -18 11 -25 15 -13 16 -12 4 3 -11 14 -9 20 14 42 15 14 31 23 36
20 4 -3 8 0 8 6 0 7 7 9 17 6 10 -4 14 -4 10 1 -9 9 222 125 234 117 5 -3 9 0
9 5 0 6 9 11 20 11 11 0 20 6 20 13 0 7 4 6 10 -4 5 -9 8 -26 5 -38 -2 -12 0
-19 5 -16 5 3 7 19 5 35 -3 18 0 28 5 25 6 -4 10 -2 10 3 0 9 8 11 54 15 13 1
22 5 19 10 -2 4 3 7 11 7 24 0 23 0 59 15 27 11 37 11 47 2 10 -9 11 -9 6 1
-6 11 11 17 37 13 4 0 7 5 7 12 0 8 4 7 10 -3 5 -8 10 -10 10 -4 0 6 6 11 13
11 6 0 24 3 40 7 29 6 73 16 91 19 6 1 10 -4 8 -11 -1 -8 2 -11 8 -7 6 3 7 11
4 17 -5 7 0 9 14 6 14 -4 20 -2 16 4 -4 6 -1 9 7 6 8 -3 26 -1 41 3 35 10 46
-6 22 -32 -15 -17 -15 -19 -2 -14 20 8 31 33 21 48 -4 6 0 8 10 4 9 -3 19 -2
22 3 8 12 174 10 223 -3z m-483 -408 c10 -15 -1 -23 -20 -15 -9 3 -13 10 -10
16 8 13 22 13 30 -1z"/>
<path d="M2314 4811 c13 -12 18 -13 28 -2 11 10 9 11 -6 5 -12 -5 -17 -4 -13
3 3 5 -1 10 -9 10 -13 0 -13 -2 0 -16z"/>
<path d="M2368 4809 c-4 -11 1 -15 16 -15 13 0 23 6 23 13 0 9 -4 10 -13 2 -8
-7 -13 -6 -16 3 -3 8 -6 8 -10 -3z"/>
<path d="M2170 4806 c0 -2 7 -7 16 -10 8 -3 12 -2 9 4 -6 10 -25 14 -25 6z"/>
<path d="M2473 4795 c0 -8 4 -12 9 -9 4 3 8 9 8 15 0 5 -4 9 -8 9 -5 0 -9 -7
-9 -15z"/>
<path d="M2599 4788 c-5 -18 -6 -38 -1 -34 7 8 12 36 6 36 -2 0 -4 -1 -5 -2z"/>
<path d="M1998 4773 c7 -3 16 -2 19 1 4 3 -2 6 -13 5 -11 0 -14 -3 -6 -6z"/>
<path d="M2093 4763 c0 -12 6 -19 12 -15 18 12 50 8 63 -8 10 -13 11 -12 5 4
-4 12 -3 17 4 13 5 -3 10 0 10 8 0 8 -5 11 -11 7 -17 -10 -70 -9 -78 3 -4 5
-6 0 -5 -12z"/>
<path d="M2293 4765 c0 -8 5 -11 10 -8 6 4 8 0 5 -9 -4 -8 -1 -15 7 -15 7 0
11 6 9 12 -3 7 7 11 27 11 21 -1 34 4 36 14 3 9 1 11 -4 5 -9 -12 -62 -14 -79
-3 -6 4 -11 1 -11 -7z"/>
<path d="M2533 4765 c0 -7 6 -11 14 -8 7 3 13 6 13 8 0 2 -6 5 -13 8 -8 3 -14
-1 -14 -8z"/>
<path d="M2413 4757 c-3 -4 -2 -11 1 -14 3 -4 6 -2 6 4 0 6 14 9 30 8 17 -1
32 0 34 4 3 4 -11 7 -30 7 -20 0 -38 -4 -41 -9z"/>
<path d="M1916 4751 c-3 -5 1 -11 9 -14 9 -4 12 -1 8 9 -6 16 -10 17 -17 5z"/>
<path d="M2027 4733 c3 -7 6 -13 8 -13 2 0 5 6 8 13 3 8 -1 14 -8 14 -7 0 -11
-6 -8 -14z"/>
<path d="M2545 4740 c-3 -6 1 -7 9 -4 18 7 21 14 7 14 -6 0 -13 -4 -16 -10z"/>
<path d="M1893 4726 c0 -8 5 -12 10 -9 7 4 8 -1 3 -13 -6 -15 -5 -17 5 -6 11
10 10 15 -2 28 -14 13 -16 13 -16 0z"/>
<path d="M2055 4731 c-3 -5 -2 -12 3 -15 5 -3 9 1 9 9 0 17 -3 19 -12 6z"/>
<path d="M2434 4729 c-3 -6 -2 -15 3 -20 5 -5 9 -1 9 11 0 23 -2 24 -12 9z"/>
<path d="M1805 4719 c-3 -4 2 -6 10 -5 21 3 28 13 10 13 -9 0 -18 -4 -20 -8z"/>
<path d="M1960 4720 c-8 -5 -10 -10 -5 -10 6 0 17 5 25 10 8 5 11 10 5 10 -5
0 -17 -5 -25 -10z"/>
<path d="M2411 4714 c0 -11 3 -14 6 -6 3 7 2 16 -1 19 -3 4 -6 -2 -5 -13z"/>
<path d="M2490 4718 c0 -3 9 -6 20 -5 11 1 20 5 20 9 0 3 -9 6 -20 5 -11 -1
-20 -5 -20 -9z"/>
<path d="M2197 4703 c-2 -5 -3 -19 -2 -33 0 -14 -6 -31 -15 -38 -13 -10 -12
-11 4 -5 12 4 17 3 13 -4 -3 -5 0 -10 8 -10 8 0 11 5 7 11 -11 17 -9 70 3 78
6 5 6 8 -2 8 -6 0 -14 -3 -16 -7z"/>
<path d="M2269 4690 c9 -18 8 -51 -1 -66 -4 -6 -1 -11 7 -11 8 0 11 5 8 10 -4
7 1 8 13 4 16 -6 17 -5 4 5 -16 13 -20 45 -8 63 4 6 -2 11 -12 11 -13 0 -16
-5 -11 -16z"/>
<path d="M2548 4698 c5 -5 16 -8 23 -6 8 3 3 7 -10 11 -17 4 -21 3 -13 -5z"/>
<path d="M1820 4691 c0 -5 -13 -7 -30 -6 -16 1 -28 -1 -25 -5 7 -11 58 -5 63
8 2 7 1 12 -2 12 -3 0 -6 -4 -6 -9z"/>
<path d="M2052 4691 c-11 -6 -10 -10 0 -19 11 -8 14 -7 14 9 0 10 0 19 -1 19
0 0 -6 -4 -13 -9z"/>
<path d="M2118 4693 c7 -3 16 -2 19 1 4 3 -2 6 -13 5 -11 0 -14 -3 -6 -6z"/>
<path d="M2348 4693 c7 -3 16 -2 19 1 4 3 -2 6 -13 5 -11 0 -14 -3 -6 -6z"/>
<path d="M2593 4685 c0 -8 4 -12 9 -9 5 3 6 10 3 15 -9 13 -12 11 -12 -6z"/>
<path d="M1973 4675 c0 -7 6 -11 14 -8 7 3 13 6 13 8 0 2 -6 5 -13 8 -8 3 -14
-1 -14 -8z"/>
<path d="M2010 4680 c0 -5 5 -10 10 -10 6 0 10 5 10 10 0 6 -4 10 -10 10 -5 0
-10 -4 -10 -10z"/>
<path d="M2393 4669 c3 -13 1 -31 -3 -39 -6 -11 -3 -16 10 -16 10 0 16 5 12
11 -3 5 -7 20 -8 33 0 12 -4 25 -8 29 -3 4 -5 -4 -3 -18z"/>
<path d="M2436 4678 c3 -5 10 -6 15 -3 13 9 11 12 -6 12 -8 0 -12 -4 -9 -9z"/>
<path d="M2533 4675 c0 -7 6 -11 14 -8 7 3 13 6 13 8 0 2 -6 5 -13 8 -8 3 -14
-1 -14 -8z"/>
<path d="M1748 4663 c10 -4 10 -8 0 -21 -12 -15 -11 -16 4 -3 19 14 15 32 -5
30 -8 0 -8 -2 1 -6z"/>
<path d="M1877 4657 c4 -7 -1 -8 -13 -4 -16 6 -17 5 -4 -5 16 -13 20 -45 8
-63 -4 -6 2 -11 12 -11 13 0 16 5 11 16 -9 18 -8 51 1 66 4 6 1 11 -7 11 -8 0
-11 -5 -8 -10z"/>
<path d="M2118 4663 c7 -3 16 -2 19 1 4 3 -2 6 -13 5 -11 0 -14 -3 -6 -6z"/>
<path d="M2348 4663 c7 -3 16 -2 19 1 4 3 -2 6 -13 5 -11 0 -14 -3 -6 -6z"/>
<path d="M2478 4650 c12 -10 18 -21 14 -24 -3 -4 2 -4 12 0 13 5 17 4 13 -3
-8 -13 18 -11 30 1 4 4 4 7 -2 5 -16 -4 -45 12 -39 22 3 5 -3 6 -12 2 -10 -4
-15 -2 -11 4 3 5 -1 10 -10 10 -13 0 -12 -4 5 -17z"/>
<path d="M1941 4644 c0 -11 3 -14 6 -6 3 7 2 16 -1 19 -3 4 -6 -2 -5 -13z"/>
<path d="M2075 4651 c-3 -5 -2 -12 3 -15 5 -3 9 1 9 9 0 17 -3 19 -12 6z"/>
<path d="M1612 4641 c-11 -7 -11 -9 0 -14 9 -3 15 1 15 9 0 8 -1 14 -1 14 -1
0 -7 -4 -14 -9z"/>
<path d="M2106 4638 c3 -5 9 -7 12 -4 3 3 12 0 21 -6 13 -10 14 -10 4 2 -15
16 -46 23 -37 8z"/>
<path d="M1516 4618 c3 -5 10 -6 15 -3 13 9 11 12 -6 12 -8 0 -12 -4 -9 -9z"/>
<path d="M1653 4605 c0 -7 6 -11 14 -8 7 3 13 6 13 8 0 2 -6 5 -13 8 -8 3 -14
-1 -14 -8z"/>
<path d="M1731 4611 c-8 -5 -20 -7 -28 -4 -7 3 -13 1 -13 -5 0 -6 8 -9 18 -7
9 1 22 -1 27 -6 7 -5 11 0 11 12 0 10 0 19 -1 19 0 0 -6 -4 -14 -9z"/>
<path d="M1798 4613 c7 -3 16 -2 19 1 4 3 -2 6 -13 5 -11 0 -14 -3 -6 -6z"/>
<path d="M2014 4600 c0 -13 5 -16 16 -11 8 5 21 6 28 4 6 -3 12 0 12 5 0 6 -8
9 -17 7 -10 -1 -23 1 -28 6 -7 5 -11 1 -11 -11z"/>
<path d="M2108 4613 c7 -3 16 -2 19 1 4 3 -2 6 -13 5 -11 0 -14 -3 -6 -6z"/>
<path d="M1532 4601 c-11 -7 -11 -9 0 -14 9 -3 15 1 15 9 0 8 -1 14 -1 14 -1
0 -7 -4 -14 -9z"/>
<path d="M1925 4601 c-2 -4 12 -7 30 -7 19 0 32 3 29 5 -7 8 -54 9 -59 2z"/>
<path d="M2153 4592 c0 -12 5 -22 9 -22 11 0 10 12 -2 30 -7 12 -9 10 -7 -8z"/>
<path d="M2430 4605 c0 -5 5 -17 10 -25 5 -8 10 -10 10 -5 0 6 -5 17 -10 25
-5 8 -10 11 -10 5z"/>
<path d="M1426 4582 c-3 -5 1 -9 9 -9 8 0 12 4 9 9 -3 4 -7 8 -9 8 -2 0 -6 -4
-9 -8z"/>
<path d="M1476 4573 c-6 -14 -5 -15 5 -6 7 7 10 15 7 18 -3 3 -9 -2 -12 -12z"/>
<path d="M1798 4583 c7 -3 16 -2 19 1 4 3 -2 6 -13 5 -11 0 -14 -3 -6 -6z"/>
<path d="M2228 4571 c3 -8 1 -12 -5 -8 -5 3 -10 0 -10 -8 0 -11 4 -12 14 -4 9
8 17 8 26 0 10 -8 14 -7 14 4 0 8 -5 11 -10 8 -6 -4 -8 0 -5 8 4 10 -1 15 -12
15 -11 0 -16 -5 -12 -15z"/>
<path d="M2357 4577 c4 -7 -1 -8 -12 -3 -15 5 -16 4 -5 -9 7 -8 17 -15 23 -15
6 0 7 3 4 7 -4 3 -2 11 3 18 7 8 5 12 -5 12 -8 0 -11 -5 -8 -10z"/>
<path d="M1573 4565 c0 -7 6 -11 14 -8 7 3 13 6 13 8 0 2 -6 5 -13 8 -8 3 -14
-1 -14 -8z"/>
<path d="M1755 4571 c-3 -5 -2 -12 3 -15 5 -3 9 1 9 9 0 17 -3 19 -12 6z"/>
<path d="M1953 4565 c0 -8 4 -12 9 -9 5 3 6 10 3 15 -9 13 -12 11 -12 -6z"/>
<path d="M1977 4561 c-4 -17 -3 -21 5 -13 5 5 8 16 6 23 -3 8 -7 3 -11 -10z"/>
<path d="M1630 4566 c0 -2 7 -7 16 -10 8 -3 12 -2 9 4 -6 10 -25 14 -25 6z"/>
<path d="M1800 4566 c0 -2 8 -10 18 -17 15 -13 16 -12 3 4 -13 16 -21 21 -21
13z"/>
<path d="M2006 4561 c-3 -5 1 -11 9 -14 9 -4 12 -1 8 9 -6 16 -10 17 -17 5z"/>
<path d="M2115 4533 c0 -23 6 -38 15 -41 10 -2 11 -1 4 5 -6 4 -10 21 -9 36 1
15 -1 30 -5 32 -3 2 -6 -12 -5 -32z"/>
<path d="M1707 4547 c-3 -8 1 -14 8 -14 7 0 11 6 8 14 -3 7 -6 13 -8 13 -2 0
-5 -6 -8 -13z"/>
<path d="M1585 4540 c-3 -6 1 -7 9 -4 18 7 21 14 7 14 -6 0 -13 -4 -16 -10z"/>
<path d="M1625 4543 c13 -10 13 -43 0 -63 -7 -12 -6 -13 7 -3 19 16 17 65 -2
71 -9 2 -11 0 -5 -5z"/>
<path d="M1843 4537 c-4 -7 -21 -13 -37 -12 -18 0 -31 -6 -33 -15 -3 -9 -1
-11 4 -5 9 12 62 14 79 3 6 -4 11 -1 11 7 0 8 -5 11 -10 8 -6 -4 -8 0 -4 10 8
20 1 22 -10 4z"/>
<path d="M2076 4538 c5 -7 2 -9 -8 -6 -8 4 -15 0 -15 -7 0 -10 5 -11 19 -4 16
9 17 29 2 29 -3 0 -2 -5 2 -12z"/>
<path d="M2315 4540 c3 -5 8 -10 11 -10 2 0 4 5 4 10 0 6 -5 10 -11 10 -5 0
-7 -4 -4 -10z"/>
<path d="M1352 4528 c-7 -7 -12 -8 -12 -4 0 5 -7 3 -15 -4 -8 -7 -15 -18 -15
-24 0 -6 5 -3 10 6 6 9 18 15 28 13 11 -2 19 3 19 11 0 17 0 17 -15 2z"/>
<path d="M1491 4531 c-8 -5 -20 -7 -28 -4 -7 3 -13 1 -13 -5 0 -6 8 -9 18 -7
9 1 22 -1 27 -6 7 -5 11 0 11 12 0 10 0 19 -1 19 0 0 -6 -4 -14 -9z"/>
<path d="M1755 4529 c-4 -6 -5 -12 -2 -15 2 -3 7 2 10 11 7 17 1 20 -8 4z"/>
<path d="M1953 4525 c0 -8 4 -12 9 -9 5 3 6 10 3 15 -9 13 -12 11 -12 -6z"/>
<path d="M2166 4525 c-11 -8 -15 -15 -9 -15 6 0 16 7 23 15 16 19 11 19 -14 0z"/>
<path d="M2275 4529 c-4 -6 -5 -12 -2 -15 2 -3 7 2 10 11 7 17 1 20 -8 4z"/>
<path d="M1381 4514 c0 -11 3 -14 6 -6 3 7 2 16 -1 19 -3 4 -6 -2 -5 -13z"/>
<path d="M1411 4514 c0 -11 3 -14 6 -6 3 7 2 16 -1 19 -3 4 -6 -2 -5 -13z"/>
<path d="M1556 4522 c-3 -5 1 -9 9 -9 8 0 12 4 9 9 -3 4 -7 8 -9 8 -2 0 -6 -4
-9 -8z"/>
<path d="M1921 4516 c-9 -10 -9 -16 -1 -21 6 -4 14 -4 17 -1 4 3 1 6 -7 6 -10
0 -10 3 0 15 7 8 10 15 7 15 -2 0 -10 -6 -16 -14z"/>
<path d="M1678 4503 c7 -3 16 -2 19 1 4 3 -2 6 -13 5 -11 0 -14 -3 -6 -6z"/>
<path d="M1531 4484 c0 -11 3 -14 6 -6 3 7 2 16 -1 19 -3 4 -6 -2 -5 -13z"/>
<path d="M1894 4481 c0 -11 5 -17 13 -14 10 4 11 9 2 19 -15 18 -15 18 -15 -5z"/>
<path d="M2158 4493 c7 -3 16 -2 19 1 4 3 -2 6 -13 5 -11 0 -14 -3 -6 -6z"/>
<path d="M1413 4474 c0 -7 7 -10 15 -6 9 3 13 1 9 -5 -3 -5 0 -10 7 -10 11 0
11 5 4 17 -12 19 -35 22 -35 4z"/>
<path d="M1656 4473 c-3 -8 -1 -11 5 -8 5 4 18 1 27 -7 15 -11 15 -11 5 3 -7
9 -11 18 -8 21 3 2 -2 5 -10 5 -8 0 -17 -7 -19 -14z"/>
<path d="M1774 4482 c4 -3 14 -7 22 -8 9 -1 13 0 10 4 -4 3 -14 7 -22 8 -9 1
-13 0 -10 -4z"/>
<path d="M2490 4478 c0 -11 12 -10 30 2 12 7 10 9 -8 7 -12 0 -22 -5 -22 -9z"/>
<path d="M1755 4460 c6 -30 16 -40 12 -12 -2 12 -6 24 -10 28 -3 4 -4 -4 -2
-16z"/>
<path d="M2116 4458 c3 -5 10 -6 15 -3 13 9 11 12 -6 12 -8 0 -12 -4 -9 -9z"/>
<path d="M2404 4459 c-3 -6 2 -18 12 -27 17 -16 17 -16 5 0 -7 9 -10 22 -6 28
3 5 4 10 1 10 -3 0 -8 -5 -12 -11z"/>
<path d="M1297 4445 c3 -8 9 -12 14 -9 12 7 11 11 -5 17 -10 4 -13 1 -9 -8z"/>
<path d="M1371 4451 c-8 -5 -20 -7 -28 -4 -7 3 -13 -1 -13 -8 0 -7 3 -9 7 -6
3 4 16 -1 27 -10 20 -17 20 -17 6 1 -13 18 -13 19 1 14 10 -4 16 -1 16 8 0 8
-1 14 -1 14 -1 0 -7 -4 -15 -9z"/>
<path d="M1534 4440 c0 -12 4 -16 11 -11 5 5 18 7 28 6 9 -2 17 1 17 7 0 5 -6
8 -12 5 -7 -2 -20 -1 -28 4 -11 5 -16 2 -16 -11z"/>
<path d="M1612 4451 c-11 -7 -11 -9 0 -14 9 -3 15 1 15 9 0 8 -1 14 -1 14 -1
0 -7 -4 -14 -9z"/>
<path d="M1798 4453 c7 -3 16 -2 19 1 4 3 -2 6 -13 5 -11 0 -14 -3 -6 -6z"/>
<path d="M1466 4442 c-3 -5 1 -9 9 -9 8 0 12 4 9 9 -3 4 -7 8 -9 8 -2 0 -6 -4
-9 -8z"/>
<path d="M1706 4442 c-3 -5 1 -9 9 -9 8 0 12 4 9 9 -3 4 -7 8 -9 8 -2 0 -6 -4
-9 -8z"/>
<path d="M1867 4431 c-3 -13 -1 -18 9 -14 7 2 10 11 7 19 -7 19 -10 18 -16 -5z"/>
<path d="M1798 4423 c7 -3 16 -2 19 1 4 3 -2 6 -13 5 -11 0 -14 -3 -6 -6z"/>
<path d="M1475 4382 c1 -20 -4 -41 -9 -45 -7 -5 -6 -7 4 -5 14 4 23 75 10 83
-3 2 -6 -13 -5 -33z"/>
<path d="M1501 4404 c0 -11 3 -14 6 -6 3 7 2 16 -1 19 -3 4 -6 -2 -5 -13z"/>
<path d="M1714 4400 c0 -13 4 -16 10 -10 7 7 7 13 0 20 -6 6 -10 3 -10 -10z"/>
<path d="M1742 4400 c0 -14 2 -19 5 -12 2 6 2 18 0 25 -3 6 -5 1 -5 -13z"/>
<path d="M2456 4407 c3 -10 9 -15 12 -12 3 3 0 11 -7 18 -10 9 -11 8 -5 -6z"/>
<path d="M2491 4411 c-8 -5 -9 -11 -3 -15 5 -3 12 1 16 9 6 17 6 18 -13 6z"/>
<path d="M1630 4400 c0 -5 5 -10 10 -10 6 0 10 5 10 10 0 6 -4 10 -10 10 -5 0
-10 -4 -10 -10z"/>
<path d="M1776 4393 c-6 -14 -5 -15 5 -6 7 7 10 15 7 18 -3 3 -9 -2 -12 -12z"/>
<path d="M1798 4392 c-3 -11 0 -19 7 -19 7 0 10 8 7 19 -2 10 -6 18 -7 18 -1
0 -5 -8 -7 -18z"/>
<path d="M2310 4401 c0 -6 4 -13 10 -16 6 -3 7 1 4 9 -7 18 -14 21 -14 7z"/>
<path d="M1597 4377 c4 -6 0 -8 -9 -5 -8 4 -15 1 -15 -7 0 -8 7 -11 16 -7 13
5 14 3 4 -9 -10 -13 -10 -16 2 -16 8 0 11 5 8 10 -4 6 0 8 9 5 8 -4 15 -1 15
7 0 8 -7 11 -16 7 -13 -5 -14 -3 -4 9 10 13 10 16 -2 16 -8 0 -11 -5 -8 -10z"/>
<path d="M2295 4371 c-3 -6 -14 -8 -25 -6 -11 2 -20 -1 -20 -6 0 -6 6 -9 13
-6 6 2 19 1 27 -4 12 -5 16 -2 16 12 0 21 -2 23 -11 10z"/>
<path d="M2358 4373 c7 -3 16 -2 19 1 4 3 -2 6 -13 5 -11 0 -14 -3 -6 -6z"/>
<path d="M2397 4368 c16 -19 65 -17 71 2 2 9 0 11 -5 5 -10 -13 -43 -13 -63 0
-12 7 -13 6 -3 -7z"/>
<path d="M1675 4360 c-5 -8 42 -7 49 1 3 3 -6 5 -20 5 -14 0 -27 -3 -29 -6z"/>
<path d="M1759 4360 c-1 -5 -2 -18 -3 -27 -1 -10 -4 -23 -8 -28 -4 -6 2 -11
12 -11 13 0 16 5 10 16 -4 8 -6 25 -4 38 2 12 2 22 -1 22 -3 0 -6 -4 -6 -10z"/>
<path d="M2016 4354 c-5 -14 -4 -15 9 -4 17 14 19 20 6 20 -5 0 -12 -7 -15
-16z"/>
<path d="M2174 4358 c-3 -5 -3 -12 0 -15 3 -4 6 -2 6 4 0 6 14 9 30 8 17 -1
28 0 25 3 -10 10 -55 10 -61 0z"/>
<path d="M1828 4343 c7 -3 16 -2 19 1 4 3 -2 6 -13 5 -11 0 -14 -3 -6 -6z"/>
<path d="M1947 4333 c3 -7 6 -13 8 -13 2 0 5 6 8 13 3 8 -1 14 -8 14 -7 0 -11
-6 -8 -14z"/>
<path d="M2108 4328 c7 -27 17 -29 17 -4 0 13 -5 23 -11 23 -6 0 -9 -9 -6 -19z"/>
<path d="M2389 4341 c9 -6 10 -11 2 -15 -6 -4 -11 -12 -11 -19 0 -6 6 -2 14 8
15 21 12 35 -7 35 -8 0 -8 -3 2 -9z"/>
<path d="M1654 4329 c3 -17 33 -20 33 -3 0 10 -4 11 -13 3 -8 -7 -14 -6 -17 1
-3 6 -5 6 -3 -1z"/>
<path d="M1873 4325 c0 -8 4 -12 9 -9 5 3 6 10 3 15 -9 13 -12 11 -12 -6z"/>
<path d="M2135 4331 c-3 -5 -2 -12 3 -15 5 -3 9 1 9 9 0 17 -3 19 -12 6z"/>
<path d="M1480 4320 c-9 -6 -10 -10 -3 -10 6 0 15 5 18 10 8 12 4 12 -15 0z"/>
<path d="M1550 4326 c0 -2 7 -7 16 -10 8 -3 12 -2 9 4 -6 10 -25 14 -25 6z"/>
<path d="M2091 4314 c0 -11 3 -14 6 -6 3 7 2 16 -1 19 -3 4 -6 -2 -5 -13z"/>
<path d="M2190 4320 c0 -5 5 -10 11 -10 5 0 7 5 4 10 -3 6 -8 10 -11 10 -2 0
-4 -4 -4 -10z"/>
<path d="M2356 4313 c-6 -14 -5 -15 5 -6 7 7 10 15 7 18 -3 3 -9 -2 -12 -12z"/>
<path d="M1513 4291 c10 -12 9 -14 -6 -8 -11 4 -16 3 -12 -4 4 -5 12 -8 18 -6
16 5 17 34 1 34 -11 0 -11 -3 -1 -16z"/>
<path d="M1546 4303 c6 -4 10 -20 9 -35 -1 -15 1 -25 5 -23 13 8 4 59 -10 63
-10 2 -11 1 -4 -5z"/>
<path d="M1953 4298 c2 -7 1 -20 -4 -28 -5 -11 -2 -16 11 -16 12 0 16 4 11 11
-5 5 -7 18 -6 28 2 9 -1 17 -7 17 -5 0 -8 -6 -5 -12z"/>
<path d="M1652 4291 c-11 -6 -10 -10 0 -19 11 -8 14 -7 14 9 0 10 0 19 -1 19
0 0 -6 -4 -13 -9z"/>
<path d="M1852 4290 c4 -14 55 -23 63 -10 2 4 -8 6 -23 5 -15 -1 -31 3 -35 9
-6 7 -7 6 -5 -4z"/>
<path d="M2028 4293 c7 -3 16 -2 19 1 4 3 -2 6 -13 5 -11 0 -14 -3 -6 -6z"/>
<path d="M2250 4291 c-8 -6 -17 -8 -21 -5 -4 2 -11 -1 -15 -8 -4 -7 -4 -10 1
-6 4 4 15 2 24 -4 9 -7 13 -8 9 -4 -4 5 0 15 10 22 19 15 14 18 -8 5z"/>
<path d="M1610 4280 c0 -5 5 -10 10 -10 6 0 10 5 10 10 0 6 -4 10 -10 10 -5 0
-10 -4 -10 -10z"/>
<path d="M1716 4282 c-3 -5 1 -9 9 -9 8 0 12 4 9 9 -3 4 -7 8 -9 8 -2 0 -6 -4
-9 -8z"/>
<path d="M2074 4261 c0 -17 4 -31 9 -31 4 0 5 12 3 26 -7 38 -14 40 -12 5z"/>
<path d="M2096 4278 c3 -5 10 -6 15 -3 13 9 11 12 -6 12 -8 0 -12 -4 -9 -9z"/>
<path d="M2156 4278 c3 -5 10 -6 15 -3 13 9 11 12 -6 12 -8 0 -12 -4 -9 -9z"/>
<path d="M1794 4251 c13 -12 18 -13 28 -2 11 10 9 11 -6 5 -12 -5 -17 -4 -13
3 3 5 -1 10 -9 10 -13 0 -13 -2 0 -16z"/>
<path d="M1691 4244 c0 -11 3 -14 6 -6 3 7 2 16 -1 19 -3 4 -6 -2 -5 -13z"/>
<path d="M1717 4253 c-10 -21 -1 -77 13 -80 9 -3 11 -1 4 4 -5 4 -10 25 -9 46
1 37 0 44 -8 30z"/>
<path d="M1575 4240 c-4 -6 -3 -10 2 -9 20 3 27 -2 13 -11 -11 -7 -11 -10 -2
-10 7 0 11 -4 8 -9 -3 -5 2 -15 12 -22 16 -13 16 -13 2 5 -13 18 -13 19 1 14
9 -4 16 -1 16 7 0 8 -7 11 -15 7 -9 -3 -13 -1 -9 5 4 6 0 16 -7 22 -10 9 -16
9 -21 1z"/>
<path d="M1655 4239 c-4 -6 -4 -13 -1 -16 3 -4 6 -1 6 6 0 7 5 9 12 5 7 -4 8
-3 4 4 -9 15 -13 15 -21 1z"/>
<path d="M1891 4234 c0 -11 3 -14 6 -6 3 7 2 16 -1 19 -3 4 -6 -2 -5 -13z"/>
<path d="M1793 4218 c2 -7 1 -20 -4 -28 -5 -11 -2 -16 11 -16 12 0 16 4 11 11
-5 5 -7 18 -6 28 2 9 -1 17 -7 17 -5 0 -8 -6 -5 -12z"/>
<path d="M1988 4223 c7 -3 16 -2 19 1 4 3 -2 6 -13 5 -11 0 -14 -3 -6 -6z"/>
<path d="M1861 4204 c0 -11 3 -14 6 -6 3 7 2 16 -1 19 -3 4 -6 -2 -5 -13z"/>
<path d="M2094 4200 c0 -13 5 -16 16 -11 8 5 21 6 28 4 6 -3 12 0 12 5 0 6 -8
9 -17 7 -10 -1 -23 1 -28 6 -7 5 -11 1 -11 -11z"/>
<path d="M2160 4213 c0 -6 8 -17 18 -24 16 -13 16 -13 2 6 -8 11 -16 22 -17
24 -2 2 -3 0 -3 -6z"/>
<path d="M2396 4207 c3 -10 9 -15 12 -12 3 3 0 11 -7 18 -10 9 -11 8 -5 -6z"/>
<path d="M1977 4191 c-10 -12 -9 -13 3 -6 20 13 73 13 83 0 5 -6 7 -4 5 5 -6
20 -75 21 -91 1z"/>
<path d="M2215 4190 c-3 -6 1 -7 9 -4 18 7 21 14 7 14 -6 0 -13 -4 -16 -10z"/>
<path d="M2270 4181 c0 -5 8 -15 18 -22 15 -12 16 -12 5 2 -7 9 -10 19 -6 22
3 4 1 7 -5 7 -7 0 -12 -4 -12 -9z"/>
<path d="M2468 4183 c7 -3 16 -2 19 1 4 3 -2 6 -13 5 -11 0 -14 -3 -6 -6z"/>
<path d="M1930 4165 c-10 -13 -11 -18 -1 -28 10 -9 11 -8 5 7 -5 12 -4 17 3
13 5 -3 10 0 10 8 0 19 -2 19 -17 0z"/>
<path d="M2359 4168 c14 -19 32 -15 30 5 0 8 -2 8 -6 -1 -4 -10 -8 -10 -21 0
-15 12 -16 11 -3 -4z"/>
<path d="M1870 4160 c0 -5 5 -10 10 -10 6 0 10 5 10 10 0 6 -4 10 -10 10 -5 0
-10 -4 -10 -10z"/>
<path d="M2319 4152 c-13 -15 -12 -16 3 -4 13 10 17 10 21 0 4 -9 6 -9 6 -1 2
20 -16 24 -30 5z"/>
<path d="M2157 4147 c-3 -8 1 -14 8 -14 7 0 11 6 8 14 -3 7 -6 13 -8 13 -2 0
-5 -6 -8 -13z"/>
<path d="M2237 4153 c-10 -9 -9 -23 1 -23 5 0 9 7 9 15 0 17 -1 18 -10 8z"/>
<path d="M1638 4143 c7 -3 16 -2 19 1 4 3 -2 6 -13 5 -11 0 -14 -3 -6 -6z"/>
<path d="M1710 4130 c11 -20 10 -32 -1 -46 -5 -7 -4 -11 5 -11 8 0 12 11 11
26 -1 14 2 31 6 36 5 7 1 11 -11 11 -13 0 -16 -4 -10 -16z"/>
<path d="M1789 4135 c5 -5 7 -18 6 -27 -2 -10 1 -18 7 -18 5 0 8 6 5 13 -2 6
-1 19 4 27 5 11 2 16 -11 16 -12 0 -16 -4 -11 -11z"/>
<path d="M1836 4138 c3 -5 10 -6 15 -3 13 9 11 12 -6 12 -8 0 -12 -4 -9 -9z"/>
<path d="M2013 4130 c2 -10 15 -15 36 -14 20 0 30 -4 27 -11 -2 -6 2 -12 9
-12 8 0 11 7 7 15 -3 9 -1 13 5 9 5 -3 10 0 10 8 0 8 -5 11 -11 7 -17 -11 -70
-9 -79 3 -5 6 -7 4 -4 -5z"/>
<path d="M2373 4125 c0 -7 6 -11 14 -8 7 3 13 6 13 8 0 2 -6 5 -13 8 -8 3 -14
-1 -14 -8z"/>
<path d="M2452 4131 c-11 -6 -10 -10 0 -19 11 -8 14 -7 14 9 0 10 0 19 -1 19
0 0 -6 -4 -13 -9z"/>
<path d="M1852 4121 c-11 -7 -11 -9 0 -14 9 -3 15 1 15 9 0 8 -1 14 -1 14 -1
0 -7 -4 -14 -9z"/>
<path d="M2275 4120 c-5 -8 42 -7 49 1 3 3 -6 5 -20 5 -14 0 -27 -3 -29 -6z"/>
<path d="M2410 4120 c0 -5 5 -10 10 -10 6 0 10 5 10 10 0 6 -4 10 -10 10 -5 0
-10 -4 -10 -10z"/>
<path d="M1954 4091 c13 -12 18 -13 28 -2 11 10 9 11 -6 5 -12 -5 -17 -4 -13
3 3 5 -1 10 -9 10 -13 0 -13 -2 0 -16z"/>
<path d="M2192 4090 c12 -19 35 -22 35 -4 0 7 -7 10 -15 6 -9 -3 -13 -1 -9 5
3 5 0 10 -7 10 -11 0 -11 -5 -4 -17z"/>
<path d="M1891 4084 c0 -11 3 -14 6 -6 3 7 2 16 -1 19 -3 4 -6 -2 -5 -13z"/>
<path d="M2252 4080 c0 -14 2 -19 5 -12 2 6 2 18 0 25 -3 6 -5 1 -5 -13z"/>
<path d="M2274 4089 c-3 -6 -2 -15 3 -20 5 -5 9 -1 9 11 0 23 -2 24 -12 9z"/>
<path d="M2120 4080 c-12 -7 -10 -9 8 -7 12 0 22 5 22 9 0 11 -12 10 -30 -2z"/>
<path d="M2350 4080 c0 -5 5 -10 10 -10 6 0 10 5 10 10 0 6 -4 10 -10 10 -5 0
-10 -4 -10 -10z"/>
<path d="M1787 4067 c-3 -8 1 -14 8 -14 7 0 11 6 8 14 -3 7 -6 13 -8 13 -2 0
-5 -6 -8 -13z"/>
<path d="M1953 4058 c2 -7 1 -20 -4 -28 -5 -11 -2 -16 11 -16 12 0 16 4 11 11
-5 5 -7 18 -6 28 2 9 -1 17 -7 17 -5 0 -8 -6 -5 -12z"/>
<path d="M2393 4051 c10 -12 9 -14 -4 -9 -9 4 -16 1 -16 -7 0 -8 7 -11 15 -7
9 3 13 1 9 -5 -3 -5 0 -10 8 -10 12 0 12 3 2 16 -10 12 -9 14 4 9 9 -4 16 -1
16 7 0 8 -7 11 -15 7 -9 -3 -13 -1 -9 5 3 5 0 10 -8 10 -12 0 -12 -3 -2 -16z"/>
<path d="M1718 4053 c7 -3 16 -2 19 1 4 3 -2 6 -13 5 -11 0 -14 -3 -6 -6z"/>
<path d="M1835 4049 c-4 -6 -5 -12 -2 -15 2 -3 7 2 10 11 7 17 1 20 -8 4z"/>
<path d="M2021 4044 c0 -11 3 -14 6 -6 3 7 2 16 -1 19 -3 4 -6 -2 -5 -13z"/>
<path d="M2051 4044 c0 -11 3 -14 6 -6 3 7 2 16 -1 19 -3 4 -6 -2 -5 -13z"/>
<path d="M2079 4058 c-5 -18 -6 -38 -1 -34 7 8 12 36 6 36 -2 0 -4 -1 -5 -2z"/>
<path d="M2153 4046 c0 -18 69 -14 75 4 2 9 0 11 -5 5 -9 -12 -42 -13 -59 -3
-6 4 -11 1 -11 -6z"/>
<path d="M1876 4042 c-3 -5 1 -9 9 -9 8 0 12 4 9 9 -3 4 -7 8 -9 8 -2 0 -6 -4
-9 -8z"/>
<path d="M2101 4034 c0 -11 3 -14 6 -6 3 7 2 16 -1 19 -3 4 -6 -2 -5 -13z"/>
<path d="M2131 4034 c0 -11 3 -14 6 -6 3 7 2 16 -1 19 -3 4 -6 -2 -5 -13z"/>
<path d="M2276 4038 c3 -5 10 -6 15 -3 13 9 11 12 -6 12 -8 0 -12 -4 -9 -9z"/>
<path d="M1715 4029 c-4 -6 -5 -12 -2 -15 2 -3 7 2 10 11 7 17 1 20 -8 4z"/>
<path d="M1755 4021 c-3 -5 0 -13 6 -17 7 -4 9 -3 5 4 -3 5 0 13 6 15 9 4 10
6 1 6 -6 1 -14 -3 -18 -8z"/>
<path d="M2309 4017 c6 -8 7 -18 3 -22 -4 -5 -1 -5 6 -1 10 6 10 11 1 22 -6 8
-14 14 -16 14 -3 0 0 -6 6 -13z"/>
<path d="M1851 4004 c0 -11 3 -14 6 -6 3 7 2 16 -1 19 -3 4 -6 -2 -5 -13z"/>
<path d="M1879 4018 c-5 -13 -5 -60 0 -63 4 -2 7 12 7 31 0 29 -3 42 -7 32z"/>
<path d="M1721 3996 c-9 -11 -9 -16 0 -22 8 -5 9 -3 4 6 -6 10 -4 12 8 7 11
-4 14 -2 10 9 -6 17 -8 17 -22 0z"/>
<path d="M2010 3998 c0 -3 9 -6 20 -5 11 1 20 5 20 9 0 3 -9 6 -20 5 -11 -1
-20 -5 -20 -9z"/>
<path d="M2123 3998 c-4 -7 -8 -20 -8 -28 0 -8 -3 -20 -7 -25 -4 -6 3 -12 15
-12 12 -1 17 1 12 5 -12 8 -13 42 -2 60 5 6 6 12 3 12 -3 0 -8 -6 -13 -12z"/>
<path d="M2420 4000 c-8 -5 -10 -10 -5 -10 6 0 17 5 25 10 8 5 11 10 5 10 -5
0 -17 -5 -25 -10z"/>
<path d="M2191 3987 c-8 -10 -7 -14 4 -14 8 0 11 5 8 10 -4 6 1 8 11 4 10 -4
15 -3 11 3 -8 14 -20 12 -34 -3z"/>
<path d="M1918 3983 c7 -3 16 -2 19 1 4 3 -2 6 -13 5 -11 0 -14 -3 -6 -6z"/>
<path d="M1828 3973 c7 -3 16 -2 19 1 4 3 -2 6 -13 5 -11 0 -14 -3 -6 -6z"/>
<path d="M2278 3973 c7 -3 16 -2 19 1 4 3 -2 6 -13 5 -11 0 -14 -3 -6 -6z"/>
<path d="M1756 3955 c-9 -26 -7 -32 5 -12 6 10 9 21 6 23 -2 3 -7 -2 -11 -11z"/>
<path d="M1904 3962 c4 -3 14 -7 22 -8 9 -1 13 0 10 4 -4 3 -14 7 -22 8 -9 1
-13 0 -10 -4z"/>
<path d="M1953 3955 c0 -8 4 -12 9 -9 5 3 6 10 3 15 -9 13 -12 11 -12 -6z"/>
<path d="M2053 3955 c0 -7 6 -11 14 -8 7 3 13 6 13 8 0 2 -6 5 -13 8 -8 3 -14
-1 -14 -8z"/>
<path d="M2155 3960 c-3 -5 -1 -10 4 -10 6 0 11 5 11 10 0 6 -2 10 -4 10 -3 0
-8 -4 -11 -10z"/>
<path d="M1797 3933 c3 -7 6 -13 8 -13 2 0 5 6 8 13 3 8 -1 14 -8 14 -7 0 -11
-6 -8 -14z"/>
<path d="M1773 3925 c0 -8 4 -12 9 -9 5 3 6 10 3 15 -9 13 -12 11 -12 -6z"/>
<path d="M1908 3933 c7 -3 16 -2 19 1 4 3 -2 6 -13 5 -11 0 -14 -3 -6 -6z"/>
<path d="M1977 3919 c4 -13 8 -18 11 -10 2 7 -1 18 -6 23 -8 8 -9 4 -5 -13z"/>
<path d="M2011 3931 c-8 -5 -9 -11 -3 -15 5 -3 12 1 16 9 6 17 6 18 -13 6z"/>
<path d="M1867 3919 c7 -7 15 -10 18 -7 3 3 -2 9 -12 12 -14 6 -15 5 -6 -5z"/>
<path d="M1953 3915 c0 -8 4 -12 9 -9 5 3 6 10 3 15 -9 13 -12 11 -12 -6z"/>
<path d="M2470 3920 c0 -5 5 -10 11 -10 5 0 7 5 4 10 -3 6 -8 10 -11 10 -2 0
-4 -4 -4 -10z"/>
<path d="M1774 3879 c0 -13 3 -15 13 -7 7 6 13 12 13 13 0 2 -6 5 -13 8 -7 3
-13 -3 -13 -14z"/>
<path d="M2014 3880 c0 -12 4 -16 11 -11 5 5 18 7 28 6 9 -2 17 1 17 7 0 5 -6
8 -12 5 -7 -2 -20 -1 -28 4 -11 5 -16 2 -16 -11z"/>
<path d="M2220 3891 c0 -5 -14 -7 -30 -6 -17 1 -32 -1 -35 -4 -2 -4 12 -7 32
-6 20 0 38 6 41 13 2 7 1 12 -2 12 -3 0 -6 -4 -6 -9z"/>
<path d="M2336 3887 c3 -10 9 -15 12 -12 3 3 0 11 -7 18 -10 9 -11 8 -5 -6z"/>
<path d="M1810 3880 c0 -5 5 -10 10 -10 6 0 10 5 10 10 0 6 -4 10 -10 10 -5 0
-10 -4 -10 -10z"/>
<path d="M1852 3881 c-11 -7 -11 -9 0 -14 9 -3 15 1 15 9 0 8 -1 14 -1 14 -1
0 -7 -4 -14 -9z"/>
<path d="M1915 3880 c-5 -8 62 -7 69 1 3 2 -11 5 -30 5 -20 0 -37 -3 -39 -6z"/>
<path d="M2101 3874 c0 -11 3 -14 6 -6 3 7 2 16 -1 19 -3 4 -6 -2 -5 -13z"/>
<path d="M2385 3881 c-2 -4 12 -7 30 -7 19 0 32 3 29 5 -7 8 -54 9 -59 2z"/>
<path d="M2233 3863 c4 -3 1 -13 -6 -22 -11 -14 -10 -14 6 -2 20 15 22 31 5
31 -6 0 -8 -3 -5 -7z"/>
<path d="M2317 3848 c19 -22 19 -22 26 -4 4 11 1 13 -10 9 -10 -4 -14 -2 -10
4 3 5 0 10 -8 10 -13 0 -12 -4 2 -19z"/>
<path d="M1890 3846 c0 -8 4 -17 9 -20 5 -4 7 3 4 14 -6 23 -13 26 -13 6z"/>
<path d="M2130 3846 c0 -8 4 -17 9 -20 5 -4 7 3 4 14 -6 23 -13 26 -13 6z"/>
<path d="M2436 3847 c3 -10 9 -15 12 -12 3 3 0 11 -7 18 -10 9 -11 8 -5 -6z"/>
<path d="M2460 3851 c0 -6 4 -13 10 -16 6 -3 7 1 4 9 -7 18 -14 21 -14 7z"/>
<path d="M2491 3844 c0 -11 3 -14 6 -6 3 7 2 16 -1 19 -3 4 -6 -2 -5 -13z"/>
<path d="M2517 3853 c-10 -21 -1 -77 13 -80 9 -3 11 -1 4 4 -5 4 -10 25 -9 46
1 37 0 44 -8 30z"/>
<path d="M1745 3840 c-3 -6 1 -7 9 -4 18 7 21 14 7 14 -6 0 -13 -4 -16 -10z"/>
<path d="M1854 3838 c-5 -7 -3 -8 6 -3 9 6 12 4 8 -7 -4 -8 0 -15 7 -15 10 0
11 5 4 19 -11 21 -15 22 -25 6z"/>
<path d="M1936 3833 c-6 -14 -5 -15 5 -6 7 7 10 15 7 18 -3 3 -9 -2 -12 -12z"/>
<path d="M1990 3839 c0 -5 5 -7 10 -4 6 3 10 8 10 11 0 2 -4 4 -10 4 -5 0 -10
-5 -10 -11z"/>
<path d="M2086 3839 c3 -5 10 -6 16 -3 7 5 9 2 6 -8 -4 -8 0 -15 8 -15 19 0 1
30 -20 33 -9 1 -14 -2 -10 -7z"/>
<path d="M2176 3833 c-6 -14 -5 -15 5 -6 7 7 10 15 7 18 -3 3 -9 -2 -12 -12z"/>
<path d="M2351 3832 c-7 -14 -6 -19 4 -19 8 0 11 7 7 16 -5 14 -4 14 14 1 18
-14 18 -14 5 3 -17 21 -18 21 -30 -1z"/>
<path d="M2197 3827 c-3 -8 1 -14 8 -14 7 0 11 6 8 14 -3 7 -6 13 -8 13 -2 0
-5 -6 -8 -13z"/>
<path d="M1795 3813 c1 -10 -1 -23 -6 -28 -5 -7 -1 -11 11 -11 13 0 16 5 11
16 -5 8 -6 21 -4 28 3 6 0 12 -5 12 -6 0 -9 -8 -7 -17z"/>
<path d="M2035 3813 c1 -10 -1 -23 -6 -28 -5 -7 -1 -11 11 -11 13 0 16 5 11
16 -5 8 -6 21 -4 28 3 6 0 12 -5 12 -6 0 -9 -8 -7 -17z"/>
<path d="M2270 3820 c0 -5 5 -10 10 -10 6 0 10 5 10 10 0 6 -4 10 -10 10 -5 0
-10 -4 -10 -10z"/>
<path d="M2543 3817 c-4 -6 -1 -7 7 -2 10 6 12 4 6 -11 -4 -10 -4 -15 0 -11 4
4 14 1 23 -6 14 -10 14 -10 3 5 -8 9 -11 21 -8 26 3 5 -2 9 -10 9 -8 0 -18 -5
-21 -10z"/>
<path d="M1958 3813 c7 -3 16 -2 19 1 4 3 -2 6 -13 5 -11 0 -14 -3 -6 -6z"/>
<path d="M2468 3813 c7 -3 16 -2 19 1 4 3 -2 6 -13 5 -11 0 -14 -3 -6 -6z"/>
<path d="M1910 3800 c0 -5 5 -10 10 -10 6 0 10 5 10 10 0 6 -4 10 -10 10 -5 0
-10 -4 -10 -10z"/>
<path d="M2153 3790 c-1 -11 2 -20 5 -20 4 0 8 9 9 20 1 11 -2 20 -5 20 -4 0
-8 -9 -9 -20z"/>
<path d="M2390 3800 c0 -5 5 -10 10 -10 6 0 10 5 10 10 0 6 -4 10 -10 10 -5 0
-10 -4 -10 -10z"/>
<path d="M2272 3787 c-8 -10 -6 -13 7 -13 11 0 17 6 14 13 -3 7 -6 13 -8 13
-1 0 -7 -6 -13 -13z"/>
<path d="M1841 3781 c-8 -5 -9 -11 -3 -15 5 -3 12 1 16 9 6 17 6 18 -13 6z"/>
<path d="M2085 3782 c-5 -4 -11 -14 -13 -22 -2 -8 0 -12 4 -8 4 4 12 3 19 -2
8 -7 12 -5 12 5 0 8 -5 11 -10 8 -6 -4 -8 0 -4 10 7 19 6 20 -8 9z"/>
<path d="M2315 3781 c-3 -5 0 -13 6 -17 7 -4 9 -3 5 4 -3 5 0 13 6 15 9 4 10
6 1 6 -6 1 -14 -3 -18 -8z"/>
<path d="M2437 3773 c3 -7 6 -13 8 -13 2 0 5 6 8 13 3 8 -1 14 -8 14 -7 0 -11
-6 -8 -14z"/>
<path d="M2199 3768 c-4 -10 -4 -77 0 -72 6 5 10 74 4 74 -2 0 -3 -1 -4 -2z"/>
<path d="M2225 3760 c-3 -6 1 -7 9 -4 18 7 21 14 7 14 -6 0 -13 -4 -16 -10z"/>
<path d="M2475 3760 c3 -5 8 -10 11 -10 2 0 4 5 4 10 0 6 -5 10 -11 10 -5 0
-7 -4 -4 -10z"/>
<path d="M1820 3746 c0 -2 9 -6 20 -9 11 -3 18 -1 14 4 -5 9 -34 13 -34 5z"/>
<path d="M1998 3743 c7 -3 16 -2 19 1 4 3 -2 6 -13 5 -11 0 -14 -3 -6 -6z"/>
<path d="M2240 3740 c-9 -6 -10 -10 -3 -10 6 0 15 5 18 10 8 12 4 12 -15 0z"/>
<path d="M2115 3731 c-3 -5 -2 -12 3 -15 5 -3 9 1 9 9 0 17 -3 19 -12 6z"/>
<path d="M2416 3726 c7 -18 34 -22 34 -4 0 6 -3 8 -7 5 -3 -4 -12 -2 -20 5
-11 8 -12 7 -7 -6z"/>
<path d="M1799 3728 c-7 -24 -4 -40 9 -50 15 -11 15 -11 6 2 -6 8 -10 23 -9
33 3 13 -2 26 -6 15z"/>
<path d="M1826 3722 c-3 -5 1 -9 9 -9 8 0 12 4 9 9 -3 4 -7 8 -9 8 -2 0 -6 -4
-9 -8z"/>
<path d="M1866 3722 c-3 -5 1 -9 9 -9 8 0 12 4 9 9 -3 4 -7 8 -9 8 -2 0 -6 -4
-9 -8z"/>
<path d="M1933 3718 c-3 -5 -2 -12 1 -15 3 -4 6 -2 6 4 0 11 59 11 80 -1 12
-7 13 -6 2 5 -14 15 -80 20 -89 7z"/>
<path d="M2150 3716 c7 -7 13 -7 20 0 6 6 3 10 -10 10 -13 0 -16 -4 -10 -10z"/>
<path d="M2250 3720 c-9 -6 -10 -10 -3 -10 6 0 15 5 18 10 8 12 4 12 -15 0z"/>
<path d="M1900 3691 c0 -6 4 -13 10 -16 6 -3 7 1 4 9 -7 18 -14 21 -14 7z"/>
<path d="M2054 3680 c0 -13 5 -16 16 -11 8 5 21 6 28 4 6 -3 12 0 12 5 0 6 -8
9 -17 7 -10 -1 -23 1 -28 6 -7 5 -11 1 -11 -11z"/>
<path d="M2148 3693 c6 -2 18 -2 25 0 6 3 1 5 -13 5 -14 0 -19 -2 -12 -5z"/>
<path d="M2235 3689 c-4 -6 -5 -12 -2 -15 2 -3 7 2 10 11 7 17 1 20 -8 4z"/>
<path d="M2636 3687 c3 -10 9 -15 12 -12 3 3 0 11 -7 18 -10 9 -11 8 -5 -6z"/>
<path d="M1764 3679 c-4 -7 -3 -9 4 -5 5 3 13 0 15 -6 4 -9 6 -10 6 -1 1 17
-16 25 -25 12z"/>
<path d="M2594 3655 c0 -13 3 -22 7 -19 8 4 6 30 -2 38 -3 3 -5 -5 -5 -19z"/>
<path d="M2148 3652 c3 -9 1 -13 -5 -9 -5 3 -10 0 -10 -7 0 -11 5 -11 17 -4
19 12 22 35 4 35 -7 0 -10 -7 -6 -15z"/>
<path d="M2185 3663 c12 -9 13 -42 3 -59 -4 -6 -1 -11 6 -11 18 0 14 69 -4 75
-9 2 -11 0 -5 -5z"/>
<path d="M1811 3644 c0 -11 3 -14 6 -6 3 7 2 16 -1 19 -3 4 -6 -2 -5 -13z"/>
<path d="M1934 3640 c0 -12 4 -16 11 -11 5 5 18 7 28 6 9 -2 17 1 17 7 0 5 -6
8 -12 5 -7 -2 -20 -1 -28 4 -11 5 -16 2 -16 -11z"/>
<path d="M2010 3645 c-10 -13 -11 -18 -1 -28 10 -9 11 -8 5 7 -5 12 -4 17 3
13 5 -3 10 0 10 8 0 19 -2 19 -17 0z"/>
<path d="M2291 3651 c-8 -5 -23 -8 -33 -6 -10 2 -16 0 -13 -5 3 -4 13 -7 23
-5 9 1 22 -1 27 -6 7 -5 11 0 11 12 0 10 0 19 -1 19 0 0 -6 -4 -14 -9z"/>
<path d="M2638 3653 c7 -3 16 -2 19 1 4 3 -2 6 -13 5 -11 0 -14 -3 -6 -6z"/>
<path d="M2670 3656 c0 -2 8 -10 18 -17 15 -13 16 -12 3 4 -13 16 -21 21 -21
13z"/>
<path d="M1833 3634 c0 -7 5 -10 11 -6 17 10 50 9 59 -3 5 -6 7 -4 5 5 -6 18
-75 22 -75 4z"/>
<path d="M2410 3640 c0 -5 8 -7 18 -5 9 1 23 -2 30 -8 9 -7 11 -6 7 5 -6 16
-55 22 -55 8z"/>
<path d="M2550 3636 c7 -7 13 -7 20 0 6 6 3 10 -10 10 -13 0 -16 -4 -10 -10z"/>
<path d="M2357 3617 c4 -7 -1 -8 -13 -4 -16 6 -17 5 -4 -5 9 -7 15 -26 15 -42
0 -18 6 -31 15 -33 9 -3 11 -1 5 4 -12 9 -14 62 -3 79 4 6 1 11 -7 11 -8 0
-11 -5 -8 -10z"/>
<path d="M2525 3619 c-4 -6 -13 -8 -19 -6 -7 3 -13 -1 -13 -8 0 -7 6 -11 12
-9 7 3 11 -7 11 -27 -1 -21 4 -34 14 -36 9 -3 11 -1 5 4 -12 9 -13 62 -2 81 5
6 6 12 3 12 -3 0 -8 -5 -11 -11z"/>
<path d="M2092 3611 c-11 -7 -11 -9 0 -14 9 -3 15 1 15 9 0 8 -1 14 -1 14 -1
0 -7 -4 -14 -9z"/>
<path d="M1800 3600 c18 -12 30 -13 30 -2 0 4 -10 9 -22 9 -18 2 -20 0 -8 -7z"/>
<path d="M1872 3590 c-7 -12 -7 -17 4 -17 7 0 10 5 7 10 -4 6 0 8 9 5 8 -4 15
-1 15 6 0 18 -23 15 -35 -4z"/>
<path d="M1764 3579 c-3 -6 0 -17 8 -25 13 -13 15 -13 15 0 0 8 -5 12 -10 9
-6 -4 -8 0 -4 10 7 19 2 23 -9 6z"/>
<path d="M2037 3583 c-7 -14 -2 -48 10 -68 7 -11 13 -15 13 -9 0 6 -3 14 -7
18 -12 11 -10 50 2 58 6 5 6 8 -2 8 -6 0 -14 -3 -16 -7z"/>
<path d="M2070 3586 c0 -2 7 -7 16 -10 8 -3 12 -2 9 4 -6 10 -25 14 -25 6z"/>
<path d="M2150 3583 c0 -5 5 -15 10 -23 7 -12 9 -10 7 8 -1 19 -17 33 -17 15z"/>
<path d="M2628 3583 c7 -3 16 -2 19 1 4 3 -2 6 -13 5 -11 0 -14 -3 -6 -6z"/>
<path d="M1958 3573 c7 -3 16 -2 19 1 4 3 -2 6 -13 5 -11 0 -14 -3 -6 -6z"/>
<path d="M2198 3573 c7 -3 16 -2 19 1 4 3 -2 6 -13 5 -11 0 -14 -3 -6 -6z"/>
<path d="M2261 3564 c0 -11 3 -14 6 -6 3 7 2 16 -1 19 -3 4 -6 -2 -5 -13z"/>
<path d="M2291 3564 c0 -11 3 -14 6 -6 3 7 2 16 -1 19 -3 4 -6 -2 -5 -13z"/>
<path d="M2421 3564 c0 -11 3 -14 6 -6 3 7 2 16 -1 19 -3 4 -6 -2 -5 -13z"/>
<path d="M1916 3554 c-8 -20 -8 -24 2 -24 4 0 8 9 9 20 2 24 -3 26 -11 4z"/>
<path d="M2399 3568 c-5 -18 -6 -38 -1 -34 7 8 12 36 6 36 -2 0 -4 -1 -5 -2z"/>
<path d="M2450 3561 c0 -6 4 -13 10 -16 6 -3 7 1 4 9 -7 18 -14 21 -14 7z"/>
<path d="M2595 3561 c-3 -5 -2 -12 3 -15 5 -3 9 1 9 9 0 17 -3 19 -12 6z"/>
<path d="M2625 3560 c-2 -3 13 -6 33 -5 20 1 41 -4 45 -9 5 -7 7 -6 5 4 -4 14
-75 23 -83 10z"/>
<path d="M2553 3545 c0 -8 4 -12 9 -9 5 3 6 10 3 15 -9 13 -12 11 -12 -6z"/>
<path d="M1837 3537 c4 -7 -1 -8 -13 -3 -15 6 -17 5 -6 -5 10 -11 15 -10 28 2
13 14 13 16 0 16 -8 0 -12 -5 -9 -10z"/>
<path d="M1958 3543 c7 -3 16 -2 19 1 4 3 -2 6 -13 5 -11 0 -14 -3 -6 -6z"/>
<path d="M2114 3531 c13 -12 18 -13 28 -2 11 10 9 11 -6 5 -12 -5 -17 -4 -13
3 3 5 -1 10 -9 10 -13 0 -13 -2 0 -16z"/>
<path d="M2198 3543 c7 -3 16 -2 19 1 4 3 -2 6 -13 5 -11 0 -14 -3 -6 -6z"/>
<path d="M2566 3521 c-15 -16 -15 -19 -2 -24 11 -4 13 -1 9 10 -4 10 -2 14 4
10 5 -3 10 0 10 8 0 19 0 19 -21 -4z"/>
<path d="M2673 3525 c0 -8 4 -12 9 -9 5 3 6 10 3 15 -9 13 -12 11 -12 -6z"/>
<path d="M1854 3518 c-5 -7 -3 -8 6 -3 9 6 12 4 8 -7 -4 -8 0 -15 7 -15 10 0
11 5 4 19 -11 21 -15 22 -25 6z"/>
<path d="M1994 3522 c4 -3 14 -7 22 -8 9 -1 13 0 10 4 -4 3 -14 7 -22 8 -9 1
-13 0 -10 -4z"/>
<path d="M2270 3520 c0 -5 5 -10 10 -10 6 0 10 5 10 10 0 6 -4 10 -10 10 -5 0
-10 -4 -10 -10z"/>
<path d="M2433 3523 c9 -8 57 -13 57 -6 0 5 -14 9 -31 9 -16 1 -28 0 -26 -3z"/>
<path d="M1793 3498 c2 -7 1 -20 -4 -28 -5 -11 -2 -16 11 -16 12 0 16 4 11 11
-5 5 -7 18 -6 28 2 9 -1 17 -7 17 -5 0 -8 -6 -5 -12z"/>
<path d="M2359 3508 c-5 -12 -4 -80 1 -83 3 -2 6 13 5 33 -1 20 4 40 9 44 7 5
7 8 -1 8 -7 0 -13 -1 -14 -2z"/>
<path d="M2398 3503 c7 -3 16 -2 19 1 4 3 -2 6 -13 5 -11 0 -14 -3 -6 -6z"/>
<path d="M1934 3480 c0 -13 5 -16 16 -11 8 5 21 6 28 4 6 -3 12 0 12 5 0 6 -8
9 -17 7 -10 -1 -23 1 -28 6 -7 5 -11 1 -11 -11z"/>
<path d="M2021 3484 c0 -11 3 -14 6 -6 3 7 2 16 -1 19 -3 4 -6 -2 -5 -13z"/>
<path d="M2173 3477 c-1 -12 1 -17 5 -11 7 11 48 12 74 2 8 -4 15 -1 15 5 0 7
-15 12 -36 11 -20 0 -41 3 -46 7 -7 5 -11 -1 -12 -14z"/>
<path d="M2073 3474 c0 -7 5 -10 11 -6 17 10 50 9 59 -3 5 -6 7 -4 5 5 -6 18
-75 22 -75 4z"/>
<path d="M2390 3486 c0 -2 7 -7 16 -10 8 -3 12 -2 9 4 -6 10 -25 14 -25 6z"/>
<path d="M1933 3435 c0 -7 7 -11 15 -7 9 3 13 1 9 -5 -3 -5 0 -10 8 -10 17 0
10 14 -14 26 -13 7 -18 6 -18 -4z"/>
<path d="M2004 3438 c-3 -4 5 -5 17 -3 30 6 36 14 9 12 -12 -1 -24 -5 -26 -9z"/>
<path d="M2136 3433 c-6 -14 -5 -15 5 -6 7 7 10 15 7 18 -3 3 -9 -2 -12 -12z"/>
<path d="M2166 3441 c-3 -5 1 -11 9 -14 9 -4 12 -1 8 9 -6 16 -10 17 -17 5z"/>
<path d="M2331 3434 c0 -11 3 -14 6 -6 3 7 2 16 -1 19 -3 4 -6 -2 -5 -13z"/>
<path d="M1828 3423 c7 -3 16 -2 19 1 4 3 -2 6 -13 5 -11 0 -14 -3 -6 -6z"/>
<path d="M2068 3423 c7 -3 16 -2 19 1 4 3 -2 6 -13 5 -11 0 -14 -3 -6 -6z"/>
<path d="M2095 3410 c-4 -6 -10 -8 -15 -5 -5 3 -12 0 -16 -6 -5 -8 -3 -9 6 -4
9 6 12 4 8 -7 -4 -8 -1 -15 7 -15 8 0 11 7 7 15 -3 9 -1 13 5 9 5 -3 10 0 10
8 0 18 -3 19 -12 5z"/>
<path d="M2213 3406 c0 -8 5 -12 10 -9 7 4 8 -1 3 -13 -6 -15 -5 -17 5 -6 11
10 10 15 -2 28 -14 13 -16 13 -16 0z"/>
<path d="M2295 3411 c-3 -6 -14 -8 -25 -6 -11 2 -20 -1 -20 -6 0 -6 6 -9 13
-6 6 2 19 1 27 -4 12 -5 16 -2 16 12 0 21 -2 23 -11 10z"/>
<path d="M2395 3410 c-3 -6 1 -7 9 -4 18 7 21 14 7 14 -6 0 -13 -4 -16 -10z"/>
<path d="M1795 3401 c-3 -5 -2 -12 3 -15 5 -3 9 1 9 9 0 17 -3 19 -12 6z"/>
<path d="M1825 3400 c-2 -3 13 -6 33 -5 20 1 41 -4 45 -9 5 -7 7 -6 5 4 -4 14
-75 23 -83 10z"/>
<path d="M2035 3401 c-3 -5 -2 -12 3 -15 5 -3 9 1 9 9 0 17 -3 19 -12 6z"/>
<path d="M2356 3398 c3 -5 10 -6 15 -3 13 9 11 12 -6 12 -8 0 -12 -4 -9 -9z"/>
<path d="M2730 3406 c0 -2 7 -7 16 -10 8 -3 12 -2 9 4 -6 10 -25 14 -25 6z"/>
<path d="M2830 3399 c0 -5 5 -7 10 -4 6 3 10 8 10 11 0 2 -4 4 -10 4 -5 0 -10
-5 -10 -11z"/>
<path d="M1988 3368 c2 -10 6 -18 7 -18 1 0 5 8 7 18 3 11 0 19 -7 19 -7 0
-10 -8 -7 -19z"/>
<path d="M2390 3374 c6 -6 7 -14 3 -17 -3 -4 -2 -7 4 -7 6 0 13 8 15 18 4 12
-1 18 -13 18 -12 0 -15 -4 -9 -12z"/>
<path d="M2470 3383 c0 -5 5 -15 10 -23 7 -12 9 -10 7 8 -1 19 -17 33 -17 15z"/>
<path d="M2797 3377 c4 -6 0 -8 -9 -5 -8 4 -15 1 -15 -6 0 -18 23 -15 35 4 7
12 7 17 -4 17 -7 0 -10 -5 -7 -10z"/>
<path d="M1771 3366 c-9 -10 -8 -15 2 -19 8 -3 13 3 13 14 0 23 0 23 -15 5z"/>
<path d="M2015 3369 c-4 -6 -5 -12 -2 -15 2 -3 7 2 10 11 7 17 1 20 -8 4z"/>
<path d="M2894 3361 c0 -12 5 -17 15 -13 10 4 12 1 6 -8 -6 -9 -4 -11 4 -6 9
6 8 13 -5 27 -21 23 -20 23 -20 0z"/>
<path d="M2039 3360 c-6 -43 -2 -64 11 -67 10 -3 11 -2 4 4 -6 4 -10 23 -8 41
1 17 1 32 -2 32 -2 0 -5 -4 -5 -10z"/>
<path d="M2130 3362 c0 -5 7 -9 15 -9 8 0 12 4 9 9 -3 4 -9 8 -15 8 -5 0 -9
-4 -9 -8z"/>
<path d="M2170 3362 c0 -4 10 -9 22 -9 18 -2 20 0 8 7 -18 12 -30 13 -30 2z"/>
<path d="M2296 3353 c-3 -8 -1 -11 5 -8 5 4 18 1 27 -7 15 -11 15 -11 5 3 -7
9 -11 18 -8 21 3 2 -2 5 -10 5 -8 0 -17 -7 -19 -14z"/>
<path d="M2531 3354 c0 -11 3 -14 6 -6 3 7 2 16 -1 19 -3 4 -6 -2 -5 -13z"/>
<path d="M2660 3360 c8 -5 20 -10 25 -10 6 0 3 5 -5 10 -8 5 -19 10 -25 10 -5
0 -3 -5 5 -10z"/>
<path d="M2724 3359 c-4 -7 -3 -9 4 -5 5 3 13 0 15 -6 4 -9 6 -10 6 -1 1 17
-16 25 -25 12z"/>
<path d="M2114 3305 c0 -24 3 -42 5 -39 8 7 9 74 1 79 -3 2 -6 -16 -6 -40z"/>
<path d="M2233 3331 c10 -12 9 -14 -4 -9 -9 4 -16 1 -16 -7 0 -8 7 -11 15 -7
9 3 13 1 9 -5 -3 -5 0 -10 8 -10 12 0 12 3 2 16 -10 12 -9 14 4 9 9 -4 16 -1
16 7 0 8 -7 11 -15 7 -9 -3 -13 -1 -9 5 3 5 0 10 -8 10 -12 0 -12 -3 -2 -16z"/>
<path d="M2589 3330 c5 -8 6 -21 4 -27 -3 -7 0 -13 5 -13 6 0 9 8 7 18 -1 9 1
22 6 27 5 7 1 11 -11 11 -13 0 -16 -5 -11 -16z"/>
<path d="M1813 3325 c0 -7 6 -11 14 -8 7 3 13 6 13 8 0 2 -6 5 -13 8 -8 3 -14
-1 -14 -8z"/>
<path d="M1891 3331 c-8 -5 -20 -7 -28 -4 -7 3 -13 1 -13 -5 0 -6 8 -9 18 -7
9 1 22 -1 27 -6 7 -5 11 0 11 12 0 10 0 19 -1 19 0 0 -6 -4 -14 -9z"/>
<path d="M1988 3333 c7 -3 16 -2 19 1 4 3 -2 6 -13 5 -11 0 -14 -3 -6 -6z"/>
<path d="M2414 3320 c0 -13 5 -16 16 -11 8 5 21 6 28 4 6 -3 12 0 12 5 0 6 -8
9 -17 7 -10 -1 -23 1 -28 6 -7 5 -11 1 -11 -11z"/>
<path d="M2501 3324 c0 -11 3 -14 6 -6 3 7 2 16 -1 19 -3 4 -6 -2 -5 -13z"/>
<path d="M2771 3324 c0 -11 3 -14 6 -6 3 7 2 16 -1 19 -3 4 -6 -2 -5 -13z"/>
<path d="M2855 3331 c-3 -6 -14 -8 -25 -6 -11 2 -20 -1 -20 -6 0 -6 6 -9 13
-6 6 2 19 1 27 -4 12 -5 16 -2 16 12 0 21 -2 23 -11 10z"/>
<path d="M2076 3322 c-3 -5 1 -9 9 -9 8 0 12 4 9 9 -3 4 -7 8 -9 8 -2 0 -6 -4
-9 -8z"/>
<path d="M2346 3322 c-3 -5 1 -9 9 -9 8 0 12 4 9 9 -3 4 -7 8 -9 8 -2 0 -6 -4
-9 -8z"/>
<path d="M2652 3321 c-11 -7 -11 -9 0 -14 9 -3 15 1 15 9 0 8 -1 14 -1 14 -1
0 -7 -4 -14 -9z"/>
<path d="M2736 3313 c-6 -14 -5 -15 5 -6 7 7 10 15 7 18 -3 3 -9 -2 -12 -12z"/>
<path d="M1958 3303 c7 -3 16 -2 19 1 4 3 -2 6 -13 5 -11 0 -14 -3 -6 -6z"/>
<path d="M2949 3291 c7 -11 7 -22 1 -29 -7 -9 -7 -9 2 -2 17 14 18 38 2 44
-11 4 -12 1 -5 -13z"/>
<path d="M1733 3285 c0 -7 6 -11 14 -8 7 3 13 6 13 8 0 2 -6 5 -13 8 -8 3 -14
-1 -14 -8z"/>
<path d="M2180 3291 c0 -7 -5 -9 -12 -5 -7 5 -8 3 -3 -5 5 -9 10 -10 18 -2 6
6 8 14 4 18 -4 3 -7 1 -7 -6z"/>
<path d="M2354 3280 c0 -13 4 -16 10 -10 7 7 7 13 0 20 -6 6 -10 3 -10 -10z"/>
<path d="M2382 3280 c0 -14 2 -19 5 -12 2 6 2 18 0 25 -3 6 -5 1 -5 -13z"/>
<path d="M2691 3284 c0 -11 3 -14 6 -6 3 7 2 16 -1 19 -3 4 -6 -2 -5 -13z"/>
<path d="M1913 3275 c0 -8 4 -12 9 -9 5 3 6 10 3 15 -9 13 -12 11 -12 -6z"/>
<path d="M2027 3279 c7 -7 15 -10 18 -7 3 3 -2 9 -12 12 -14 6 -15 5 -6 -5z"/>
<path d="M2141 3274 c0 -11 3 -14 6 -6 3 7 2 16 -1 19 -3 4 -6 -2 -5 -13z"/>
<path d="M2270 3280 c0 -5 5 -10 10 -10 6 0 10 5 10 10 0 6 -4 10 -10 10 -5 0
-10 -4 -10 -10z"/>
<path d="M2413 3275 c0 -7 7 -11 15 -7 9 3 13 1 9 -5 -3 -5 0 -10 8 -10 17 0
10 14 -14 26 -13 7 -18 6 -18 -4z"/>
<path d="M2484 3278 c-3 -4 5 -5 17 -3 30 6 36 14 9 12 -12 -1 -24 -5 -26 -9z"/>
<path d="M2752 3285 c3 -3 16 -8 28 -10 12 -2 20 -1 16 2 -4 4 -16 8 -28 10
-12 2 -19 1 -16 -2z"/>
<path d="M2855 3281 c-3 -5 -2 -12 3 -15 5 -3 9 1 9 9 0 17 -3 19 -12 6z"/>
<path d="M2587 3267 c-3 -8 1 -14 8 -14 7 0 11 6 8 14 -3 7 -6 13 -8 13 -2 0
-5 -6 -8 -13z"/>
<path d="M2827 3267 c-3 -8 1 -14 8 -14 7 0 11 6 8 14 -3 7 -6 13 -8 13 -2 0
-5 -6 -8 -13z"/>
<path d="M1745 3260 c-3 -6 1 -7 9 -4 18 7 21 14 7 14 -6 0 -13 -4 -16 -10z"/>
<path d="M1786 3263 c6 -4 10 -20 9 -35 -1 -15 1 -25 5 -23 13 8 4 59 -10 63
-10 2 -11 1 -4 -5z"/>
<path d="M2548 3263 c10 -4 10 -8 0 -21 -12 -15 -11 -16 4 -3 19 14 15 32 -5
30 -8 0 -8 -2 1 -6z"/>
<path d="M2718 3263 c7 -3 16 -2 19 1 4 3 -2 6 -13 5 -11 0 -14 -3 -6 -6z"/>
<path d="M1868 3253 c7 -3 16 -2 19 1 4 3 -2 6 -13 5 -11 0 -14 -3 -6 -6z"/>
<path d="M1934 3240 c0 -13 5 -16 16 -11 8 5 21 6 28 4 6 -3 12 0 12 5 0 6 -8
9 -17 7 -10 -1 -23 1 -28 6 -7 5 -11 1 -11 -11z"/>
<path d="M2174 3241 c0 -11 5 -17 13 -14 10 4 11 9 2 19 -15 18 -15 18 -15 -5z"/>
<path d="M2635 3249 c-4 -6 -5 -12 -2 -15 2 -3 7 2 10 11 7 17 1 20 -8 4z"/>
<path d="M2012 3241 c-11 -7 -11 -9 0 -14 9 -3 15 1 15 9 0 8 -1 14 -1 14 -1
0 -7 -4 -14 -9z"/>
<path d="M2106 3238 c3 -5 10 -6 15 -3 13 9 11 12 -6 12 -8 0 -12 -4 -9 -9z"/>
<path d="M2210 3240 c0 -5 5 -10 10 -10 6 0 10 5 10 10 0 6 -4 10 -10 10 -5 0
-10 -4 -10 -10z"/>
<path d="M2252 3241 c-11 -7 -11 -9 0 -14 9 -3 15 1 15 9 0 8 -1 14 -1 14 -1
0 -7 -4 -14 -9z"/>
<path d="M2315 3240 c-5 -8 42 -7 49 1 3 3 -6 5 -20 5 -14 0 -27 -3 -29 -6z"/>
<path d="M2515 3241 c-3 -5 -2 -12 3 -15 5 -3 9 1 9 9 0 17 -3 19 -12 6z"/>
<path d="M2653 3238 c-3 -5 -2 -12 1 -15 3 -4 6 -2 6 4 0 5 18 9 40 8 22 -1
38 1 35 4 -10 9 -76 8 -82 -1z"/>
<path d="M2753 3235 c0 -8 4 -12 9 -9 5 3 6 10 3 15 -9 13 -12 11 -12 -6z"/>
<path d="M2915 3241 c-6 -11 13 -26 22 -17 4 3 1 6 -6 6 -7 0 -9 5 -6 10 3 6
4 10 1 10 -3 0 -7 -4 -11 -9z"/>
<path d="M1838 3223 c7 -3 16 -2 19 1 4 3 -2 6 -13 5 -11 0 -14 -3 -6 -6z"/>
<path d="M2077 3217 c4 -7 -1 -8 -13 -3 -15 6 -17 5 -6 -5 10 -11 15 -10 28 2
13 14 13 16 0 16 -8 0 -12 -5 -9 -10z"/>
<path d="M2393 3223 c4 -3 -1 -16 -10 -27 -17 -20 -17 -20 1 -6 18 13 19 13
14 -1 -4 -9 -1 -16 7 -16 9 0 11 6 6 16 -5 9 -6 22 -4 29 3 6 -1 12 -8 12 -7
0 -9 -3 -6 -7z"/>
<path d="M2467 3213 c3 -7 6 -13 8 -13 2 0 5 6 8 13 3 8 -1 14 -8 14 -7 0 -11
-6 -8 -14z"/>
<path d="M2562 3222 c-9 -6 -7 -13 10 -28 17 -14 19 -15 9 -2 -7 9 -10 22 -6
28 7 12 4 12 -13 2z"/>
<path d="M2797 3213 c3 -7 6 -13 8 -13 2 0 5 6 8 13 3 8 -1 14 -8 14 -7 0 -11
-6 -8 -14z"/>
<path d="M2291 3213 c-2 -20 16 -24 30 -5 13 15 12 16 -3 4 -13 -10 -17 -10
-21 0 -4 9 -6 9 -6 1z"/>
<path d="M2495 3209 c-4 -6 -5 -12 -2 -15 2 -3 7 2 10 11 7 17 1 20 -8 4z"/>
<path d="M2693 3205 c0 -8 4 -12 9 -9 5 3 6 10 3 15 -9 13 -12 11 -12 -6z"/>
<path d="M2776 3207 c3 -10 9 -15 12 -12 3 3 0 11 -7 18 -10 9 -11 8 -5 -6z"/>
<path d="M1917 3192 c-15 -16 -15 -18 2 -18 12 0 17 5 13 15 -4 10 -1 12 8 6
9 -5 11 -4 6 3 -9 15 -10 15 -29 -6z"/>
<path d="M2016 3202 c-3 -5 1 -9 9 -9 8 0 12 4 9 9 -3 4 -7 8 -9 8 -2 0 -6 -4
-9 -8z"/>
<path d="M2140 3195 c-11 -13 -10 -14 5 -9 11 5 16 4 12 -3 -3 -5 0 -10 8 -10
12 0 12 3 3 16 -7 9 -13 17 -14 19 -1 1 -7 -4 -14 -13z"/>
<path d="M2255 3199 c-4 -6 -4 -13 -1 -16 3 -4 6 -1 6 7 0 10 4 10 18 -1 15
-13 16 -12 3 4 -16 20 -18 20 -26 6z"/>
<path d="M1733 3165 c0 -8 5 -11 10 -8 7 4 8 -1 4 -13 -6 -16 -5 -17 5 -4 13
16 45 20 63 8 6 -4 11 2 11 12 0 13 -5 16 -16 11 -18 -9 -51 -8 -66 1 -6 4
-11 1 -11 -7z"/>
<path d="M2014 3160 c0 -10 5 -16 11 -12 18 12 50 8 63 -8 10 -13 11 -12 5 4
-4 12 -3 17 4 13 5 -3 10 0 10 8 0 8 -5 11 -11 7 -15 -9 -48 -10 -66 -1 -11 5
-16 2 -16 -11z"/>
<path d="M2353 3165 c0 -8 4 -12 9 -9 5 3 6 10 3 15 -9 13 -12 11 -12 -6z"/>
<path d="M2492 3170 c6 -19 55 -21 71 -2 10 13 9 14 -3 7 -20 -13 -53 -13 -63
0 -5 6 -7 4 -5 -5z"/>
<path d="M2595 3171 c-3 -5 -2 -12 3 -15 5 -3 9 1 9 9 0 17 -3 19 -12 6z"/>
<path d="M2256 3161 c7 -8 74 -9 79 -1 2 3 -16 6 -40 6 -24 0 -42 -3 -39 -5z"/>
<path d="M2470 3161 c0 -6 4 -13 10 -16 6 -3 7 1 4 9 -7 18 -14 21 -14 7z"/>
<path d="M2624 3163 c4 -4 16 -8 28 -10 12 -2 19 -1 16 2 -3 3 -16 8 -28 10
-12 2 -20 1 -16 -2z"/>
<path d="M3074 3152 c3 -5 0 -13 -6 -15 -9 -4 -10 -6 -1 -6 17 -1 25 16 12 25
-7 4 -9 3 -5 -4z"/>
<path d="M1877 3137 c4 -6 0 -8 -9 -5 -8 4 -15 1 -15 -7 0 -7 6 -11 12 -9 7 3
11 -7 11 -27 -1 -21 4 -34 14 -36 9 -3 11 -1 5 4 -12 9 -14 62 -3 79 4 6 1 11
-7 11 -8 0 -11 -5 -8 -10z"/>
<path d="M1948 3136 c11 -17 9 -70 -3 -79 -6 -5 -4 -7 5 -4 9 2 15 15 15 33 0
16 6 35 15 42 13 10 12 11 -4 5 -12 -4 -17 -3 -13 4 3 5 0 10 -8 10 -8 0 -11
-5 -7 -11z"/>
<path d="M2192 3130 c12 -19 35 -22 35 -4 0 7 -7 10 -15 6 -9 -3 -13 -1 -9 5
3 5 0 10 -7 10 -11 0 -11 -5 -4 -17z"/>
<path d="M2427 3133 c3 -7 6 -13 8 -13 2 0 5 6 8 13 3 8 -1 14 -8 14 -7 0 -11
-6 -8 -14z"/>
<path d="M3027 3133 c4 -10 2 -14 -4 -10 -5 3 -10 0 -10 -8 0 -13 4 -12 19 2
22 19 22 19 4 26 -11 4 -13 1 -9 -10z"/>
<path d="M2318 3133 c7 -3 16 -2 19 1 4 3 -2 6 -13 5 -11 0 -14 -3 -6 -6z"/>
<path d="M2554 3123 c2 -9 8 -18 15 -19 6 -1 7 0 1 3 -5 2 -8 9 -5 13 3 5 1
11 -4 14 -5 4 -8 -2 -7 -11z"/>
<path d="M2120 3120 c-12 -7 -10 -9 8 -7 12 0 22 5 22 9 0 11 -12 10 -30 -2z"/>
<path d="M2531 3114 c0 -11 3 -14 6 -6 3 7 2 16 -1 19 -3 4 -6 -2 -5 -13z"/>
<path d="M2695 3121 c-3 -5 -2 -12 3 -15 5 -3 9 1 9 9 0 17 -3 19 -12 6z"/>
<path d="M2936 3113 c-6 -14 -5 -15 5 -6 7 7 10 15 7 18 -3 3 -9 -2 -12 -12z"/>
<path d="M3090 3118 c0 -4 4 -8 9 -8 6 0 12 4 15 8 3 5 -1 9 -9 9 -8 0 -15 -4
-15 -9z"/>
<path d="M2314 3112 c3 -5 0 -13 -6 -15 -9 -4 -10 -6 -1 -6 17 -1 25 16 12 25
-7 4 -9 3 -5 -4z"/>
<path d="M2667 3107 c-3 -8 1 -14 8 -14 7 0 11 6 8 14 -3 7 -6 13 -8 13 -2 0
-5 -6 -8 -13z"/>
<path d="M2880 3116 c0 -2 7 -7 16 -10 8 -3 12 -2 9 4 -6 10 -25 14 -25 6z"/>
<path d="M2960 3116 c0 -2 7 -7 16 -10 8 -3 12 -2 9 4 -6 10 -25 14 -25 6z"/>
<path d="M2340 3104 c0 -1 6 -7 14 -13 10 -9 15 -8 19 2 3 8 -3 13 -14 13 -11
0 -19 -1 -19 -2z"/>
<path d="M2433 3098 c2 -7 1 -20 -4 -28 -5 -11 -2 -16 11 -16 12 0 16 4 11 11
-5 5 -7 18 -6 28 2 9 -1 17 -7 17 -5 0 -8 -6 -5 -12z"/>
<path d="M2867 3095 c3 -8 9 -12 14 -9 12 7 11 11 -5 17 -10 4 -13 1 -9 -8z"/>
<path d="M1781 3084 c0 -11 3 -14 6 -6 3 7 2 16 -1 19 -3 4 -6 -2 -5 -13z"/>
<path d="M1811 3084 c0 -11 3 -14 6 -6 3 7 2 16 -1 19 -3 4 -6 -2 -5 -13z"/>
<path d="M2021 3084 c0 -11 3 -14 6 -6 3 7 2 16 -1 19 -3 4 -6 -2 -5 -13z"/>
<path d="M2051 3084 c0 -11 3 -14 6 -6 3 7 2 16 -1 19 -3 4 -6 -2 -5 -13z"/>
<path d="M2079 3098 c-5 -18 -6 -38 -1 -34 7 8 12 36 6 36 -2 0 -4 -1 -5 -2z"/>
<path d="M2135 3089 c-4 -6 -5 -12 -2 -15 2 -3 7 2 10 11 7 17 1 20 -8 4z"/>
<path d="M2220 3091 c0 -5 -14 -7 -30 -6 -17 1 -32 -1 -35 -4 -2 -4 12 -7 32
-6 20 0 38 6 41 13 2 7 1 12 -2 12 -3 0 -6 -4 -6 -9z"/>
<path d="M2501 3084 c0 -11 3 -14 6 -6 3 7 2 16 -1 19 -3 4 -6 -2 -5 -13z"/>
<path d="M1692 3081 c-11 -7 -11 -9 0 -14 9 -3 15 1 15 9 0 8 -1 14 -1 14 -1
0 -7 -4 -14 -9z"/>
<path d="M2101 3074 c0 -11 3 -14 6 -6 3 7 2 16 -1 19 -3 4 -6 -2 -5 -13z"/>
<path d="M2236 3073 c-6 -14 -5 -15 5 -6 7 7 10 15 7 18 -3 3 -9 -2 -12 -12z"/>
<path d="M2550 3086 c0 -2 7 -7 16 -10 8 -3 12 -2 9 4 -6 10 -25 14 -25 6z"/>
<path d="M2593 3075 c0 -8 4 -12 9 -9 5 3 6 10 3 15 -9 13 -12 11 -12 -6z"/>
<path d="M2710 3080 c0 -5 5 -10 10 -10 6 0 10 5 10 10 0 6 -4 10 -10 10 -5 0
-10 -4 -10 -10z"/>
<path d="M2275 3040 c0 -15 5 -27 10 -27 6 0 10 12 10 27 0 15 -4 27 -10 27
-5 0 -10 -12 -10 -27z"/>
<path d="M2350 3060 c0 -5 5 -10 10 -10 6 0 10 5 10 10 0 6 -4 10 -10 10 -5 0
-10 -4 -10 -10z"/>
<path d="M2637 3053 c3 -7 6 -13 8 -13 2 0 5 6 8 13 3 8 -1 14 -8 14 -7 0 -11
-6 -8 -14z"/>
<path d="M1734 3039 c0 -13 3 -15 13 -7 7 6 13 12 13 13 0 2 -6 5 -13 8 -7 3
-13 -3 -13 -14z"/>
<path d="M2254 3040 c0 -13 4 -16 10 -10 7 7 7 13 0 20 -6 6 -10 3 -10 -10z"/>
<path d="M1794 3043 c3 -3 26 -7 51 -8 26 -2 44 -1 41 2 -3 3 -26 7 -51 8 -26
2 -44 1 -41 -2z"/>
<path d="M2030 3040 c0 -5 5 -10 10 -10 6 0 10 5 10 10 0 6 -4 10 -10 10 -5 0
-10 -4 -10 -10z"/>
<path d="M2191 3027 c-8 -10 -7 -14 4 -14 8 0 11 5 8 10 -4 6 1 8 11 4 10 -4
15 -3 11 3 -8 14 -20 12 -34 -3z"/>
<path d="M1756 3021 c-3 -5 2 -15 12 -22 15 -13 16 -12 4 3 -10 13 -10 17 0
21 9 4 9 6 1 6 -6 1 -14 -3 -17 -8z"/>
<path d="M1906 3018 c3 -5 10 -6 15 -3 13 9 11 12 -6 12 -8 0 -12 -4 -9 -9z"/>
<path d="M1949 3010 c5 -8 6 -21 4 -27 -3 -7 0 -13 5 -13 6 0 9 8 7 18 -1 9 1
22 6 27 5 7 1 11 -11 11 -13 0 -16 -5 -11 -16z"/>
<path d="M2115 3013 c1 -10 -1 -23 -6 -28 -5 -7 -1 -11 11 -11 13 0 16 5 11
16 -5 8 -6 21 -4 28 3 6 0 12 -5 12 -6 0 -9 -8 -7 -17z"/>
<path d="M2420 3024 c0 -1 8 -8 17 -15 9 -8 14 -9 10 -2 -4 6 -1 13 5 16 7 3
3 4 -9 4 -13 -1 -23 -2 -23 -3z"/>
<path d="M2478 3023 c7 -3 16 -2 19 1 4 3 -2 6 -13 5 -11 0 -14 -3 -6 -6z"/>
<path d="M1713 3005 c0 -8 4 -12 9 -9 5 3 6 10 3 15 -9 13 -12 11 -12 -6z"/>
<path d="M2377 3009 c7 -7 15 -10 18 -7 3 3 -2 9 -12 12 -14 6 -15 5 -6 -5z"/>
<path d="M1670 2998 c0 -4 4 -8 9 -8 6 0 12 4 15 8 3 5 -1 9 -9 9 -8 0 -15 -4
-15 -9z"/>
<path d="M1794 2975 c0 -19 3 -32 5 -29 8 7 9 54 2 59 -4 2 -7 -12 -7 -30z"/>
<path d="M1893 2995 c0 -7 6 -11 14 -8 7 3 13 6 13 8 0 2 -6 5 -13 8 -8 3 -14
-1 -14 -8z"/>
<path d="M2021 2994 c0 -11 3 -14 6 -6 3 7 2 16 -1 19 -3 4 -6 -2 -5 -13z"/>
<path d="M2236 2994 c-8 -20 -8 -24 2 -24 4 0 8 9 9 20 2 24 -3 26 -11 4z"/>
<path d="M2161 2981 c-8 -5 -9 -11 -3 -15 5 -3 12 1 16 9 6 17 6 18 -13 6z"/>
<path d="M1755 2970 c-4 -6 -10 -8 -14 -6 -4 3 -13 0 -21 -5 -11 -7 -10 -8 8
-6 20 3 56 27 40 27 -4 0 -10 -5 -13 -10z"/>
<path d="M1860 2971 c0 -7 -5 -9 -12 -5 -7 5 -8 3 -3 -5 5 -9 10 -10 18 -2 6
6 8 14 4 18 -4 3 -7 1 -7 -6z"/>
<path d="M2051 2964 c0 -11 3 -14 6 -6 3 7 2 16 -1 19 -3 4 -6 -2 -5 -13z"/>
<path d="M1821 2954 c0 -11 3 -14 6 -6 3 7 2 16 -1 19 -3 4 -6 -2 -5 -13z"/>
<path d="M2080 2960 c8 -5 20 -10 25 -10 6 0 3 5 -5 10 -8 5 -19 10 -25 10 -5
0 -3 -5 5 -10z"/>
<path d="M1947 2947 c-3 -8 1 -14 8 -14 7 0 11 6 8 14 -3 7 -6 13 -8 13 -2 0
-5 -6 -8 -13z"/>
<path d="M1670 2928 c-14 -11 -18 -19 -10 -16 8 3 22 2 31 -3 10 -5 16 -3 16
6 0 8 -7 11 -16 7 -14 -5 -14 -3 -2 11 18 23 11 21 -19 -5z"/>
<path d="M1854 2920 c0 -12 4 -16 11 -11 5 5 18 7 28 6 9 -2 17 1 17 7 0 5 -6
8 -12 5 -7 -2 -20 -1 -28 4 -11 5 -16 2 -16 -11z"/>
<path d="M1786 2918 c3 -5 10 -6 15 -3 13 9 11 12 -6 12 -8 0 -12 -4 -9 -9z"/>
<path d="M1759 2893 c-13 -16 -12 -17 4 -4 9 7 17 15 17 17 0 8 -8 3 -21 -13z"/>
<path d="M1731 2884 c0 -11 3 -14 6 -6 3 7 2 16 -1 19 -3 4 -6 -2 -5 -13z"/>
</g>
</svg>
